<?xml version="1.0" encoding="utf-8"?>
<!-- Generator: Adobe Illustrator 22.0.1, SVG Export Plug-In . SVG Version: 6.00 Build 0)  -->
<svg version="1.1" id="图层_1" xmlns="http://www.w3.org/2000/svg" xmlns:xlink="http://www.w3.org/1999/xlink" x="0px" y="0px"
	 viewBox="0 0 512 512" style="enable-background:new 0 0 512 512;" xml:space="preserve">
<style type="text/css">
	.st0{fill-rule:evenodd;clip-rule:evenodd;}
</style>
<g>
	<path d="M228.4,355.5H114.9c-5.2,0-9.5,4.2-9.5,9.2v71.8c0,5.1,4.3,9.2,9.5,9.2h113.5c5.2,0,9.5-4.2,9.5-9.2v-71.8
		C237.9,359.6,233.6,355.5,228.4,355.5L228.4,355.5z M228.4,240.9H114.9c-5.2,0-9.5,4.2-9.5,9.3v71.9c0,5.1,4.3,9.3,9.5,9.3h113.5
		c5.2,0,9.5-4.2,9.5-9.3v-71.9C237.9,245.1,233.6,240.9,228.4,240.9L228.4,240.9z M228.4,240.9"/>
	<path d="M486,166.7H359.1L339.7,155v-12.7h56c9.6,0,17.4-8.1,17.4-17.9V48.1c0-9.9-7.8-17.9-17.4-17.9H256.6
		c-9.6,0-17.4,8.1-17.4,17.9v76.3c0,9.9,7.8,17.9,17.4,17.9h56V155l-19.4,11.7H144.9c-0.1-0.6-0.2-1.1-0.3-1.7l-2.3-8
		c-1.7-5.9-1.3-15.5,0.8-21.2l4.3-11.6c2.1-5.8,3.3-15.5,2.7-21.6l-1.3-11.3C148.2,85,142.8,80,136.8,80h-30.1
		c-6,0-11.4,5-12.1,11.1l-1.3,11.3c-0.7,6.1,0.5,15.9,2.7,21.6l4.3,11.6c2.1,5.8,2.5,15.3,0.8,21.2l-2.3,8c-0.2,0.6-0.3,1.1-0.3,1.7
		H26c-6,0-10.9,5-10.9,11.2v29.3c0,6.2,4.9,11.2,10.9,11.2h10.9c6,0,10.9,5,10.9,11.2v241c0,6.2,4.9,11.2,10.9,11.2h10.9
		c6,0,10.9-5,10.9-11.2v-241c0-6.2,4.9-11.2,10.9-11.2h329.6c6,0,10.9,5,10.9,11.2v241c0,6.2,4.9,11.2,10.9,11.2h10.9
		c6,0,10.9-5,10.9-11.2v-241c0-6.2,4.9-11.2,10.9-11.2H486c6,0,10.9-5,10.9-11.2v-29.3C496.9,171.7,492,166.7,486,166.7L486,166.7z
		 M486,166.7"/>
	<path d="M412.5,250.3c0-5.1-4.3-9.3-9.5-9.3H289.7c-5.2,0-9.5,4.2-9.5,9.3v186.1c0,5.1,4.3,9.3,9.5,9.3H403c5.2,0,9.5-4.2,9.5-9.3
		h0L412.5,250.3L412.5,250.3z M412.5,250.3"/>
</g>
</svg>
