<?xml version="1.0" encoding="utf-8"?>
<!-- Generator: Adobe Illustrator 22.0.1, SVG Export Plug-In . SVG Version: 6.00 Build 0)  -->
<svg version="1.1" id="图层_1" xmlns="http://www.w3.org/2000/svg" xmlns:xlink="http://www.w3.org/1999/xlink" x="0px" y="0px"
	 viewBox="0 0 512 512" style="enable-background:new 0 0 512 512;" xml:space="preserve">
<style type="text/css">
	.st0{fill-rule:evenodd;clip-rule:evenodd;}
</style>
<g>
	<path class="st0" d="M124,161.8h239.1c11.3,0,20.4-9.2,20.4-20.4v-3.5c0-11.3-9.2-20.4-20.4-20.4H124c-11.3,0-20.4,9.2-20.4,20.4
		v3.5C103.5,152.6,112.7,161.8,124,161.8z"/>
	<path class="st0" d="M215,210.8H124c-11.3,0-20.4,9.2-20.4,20.4v3.5c0,11.3,9.2,20.4,20.4,20.4h54.3l2.9-4.7
		c5.1-8.1,11.1-15.8,17.7-22.8L215,210.8z"/>
	<path class="st0" d="M339.4,20.2H144.8c-63,0-114.2,51.2-114.2,114.2v243.2c0,63,51.2,114.2,114.2,114.2h194.6
		c63,0,114.2-51.2,114.2-114.2V134.4C453.6,71.4,402.4,20.2,339.4,20.2z M339.4,451.8H144.8c-40.9,0-74.2-33.3-74.2-74.2V134.4
		c0-40.9,33.3-74.2,74.2-74.2h194.6c40.9,0,74.2,33.3,74.2,74.2v243.2C413.6,418.5,380.3,451.8,339.4,451.8z"/>
	<path class="st0" d="M300.8,236.4c-21.1,0-41.7,7.3-58,20.6c-16.1,13.1-27.3,31.5-31.7,51.6l-1.7,8.1c-9,0-15.9,0-17,0
		c-3.4,0-5.1,3.5-3.6,6.1c2,3.6,31.5,53.6,33.4,56.7c1.6,2.7,5.6,2.8,7.2,0c2.5-4.2,31.8-54,33.3-56.5c1.8-3.1-0.5-6.3-3.6-6.3
		c-0.7,0-7.2,0-15.8,0l1-3.8c6.9-25.5,30.1-43.3,56.6-43.3c32.3,0,58.6,26.3,58.6,58.6s-26.3,58.6-58.6,58.6h-9.1v33.3h9.1
		c50.6,0,91.8-41.2,91.8-91.9S351.4,236.4,300.8,236.4z"/>
</g>
</svg>
