<?xml version="1.0" encoding="utf-8"?>
<!-- Generator: Adobe Illustrator 22.0.1, SVG Export Plug-In . SVG Version: 6.00 Build 0)  -->
<svg version="1.1" id="图层_1" xmlns="http://www.w3.org/2000/svg" xmlns:xlink="http://www.w3.org/1999/xlink" x="0px" y="0px"
	 viewBox="0 0 512 512" style="enable-background:new 0 0 512 512;" xml:space="preserve">
<style type="text/css">
	.st0{fill-rule:evenodd;clip-rule:evenodd;}
</style>
<g>
	<path d="M265.5,71.7H53.2c-1.1,0-1.9,1.1-1.9,2.1v364.7c0,1.1,0.8,1.7,1.9,1.7h72.8v-70.7h66.8v70.7h72.8c1.1,0,1.7-0.6,1.7-1.7
		V73.9C267.2,72.8,266.6,71.7,265.5,71.7L265.5,71.7z M143.8,316.6H92.4v-50.5h51.3V316.6z M143.8,240.8H92.4v-50.5h51.3V240.8z
		 M143.8,165.1H92.4v-50.5h51.3V165.1z M226.1,316.6h-51.3v-50.5h51.3V316.6z M226.1,240.8h-51.3v-50.5h51.3V240.8z M226.1,165.1
		h-51.3v-50.5h51.3V165.1z M450.1,190.3H309.9c-5.7,0-10.6,4.7-10.6,10.4v238.5c0,0.6,0.4,1.1,1.3,1.1h56v-46.7h47.5v46.7h55.4
		c0.6,0,1.3-0.6,1.3-1.3V200.7C460.7,195,455.9,190.3,450.1,190.3L450.1,190.3z M438.9,354.5H320.7v-25.2h118.4L438.9,354.5z
		 M438.9,304.1H320.7v-25.2h118.4L438.9,304.1z M438.9,253.6H320.7v-25.2h118.4L438.9,253.6z M438.9,253.6"/>
</g>
</svg>
