<?xml version="1.0" encoding="utf-8"?>
<!-- Generator: Adobe Illustrator 22.0.1, SVG Export Plug-In . SVG Version: 6.00 Build 0)  -->
<svg version="1.1" id="图层_1" xmlns="http://www.w3.org/2000/svg" xmlns:xlink="http://www.w3.org/1999/xlink" x="0px" y="0px"
	 viewBox="0 0 512 512" style="enable-background:new 0 0 512 512;" xml:space="preserve">
<style type="text/css">
	.st0{fill-rule:evenodd;clip-rule:evenodd;}
</style>
<path d="M254.1,55.5l5.4,17.4l17.4,0l-14.1,10.7l5.4,17.4l-14.1-10.8L240,101l5.4-17.4l-14.1-10.7l17.4,0L254.1,55.5z"/>
<g>
	<path d="M147,133.4c105.1-20.4,191.7-3.4,217.2,2.8V135c0,0,9.5-28.1,19-41.8c9.4-13.7,12.1-24.7,3.8-30.4
		c-8.3-5.6-87.3-38-87.3-38h-87.3c0,0-76,29.8-87.3,38c-11.3,8.2-3.8,19-3.8,19L147,133.4z M223.7,85.7c3-4.4,3.8-7.6,3.8-7.6
		s3.3-4.6,0-11.4c-3.3-6.8-3.8,0-3.8,0v-3.8l11.4-11.4h15.2l3.8-3.8h3.8l3.8,3.8h15.2l11.4,11.4c0,0-8,3.7-7.6,7.6
		c0.4,3.9,3.8,7.6,3.8,7.6s5.9,14.4,0,22.8c-5.9,8.3-30.4,15.2-30.4,15.2l-30.4-15.2C223.7,100.8,220.7,90,223.7,85.7z"/>
	<path d="M147.8,141.4V154c112.9,66.3,216.4,0,216.4,0v-8.7C268.9,117.5,168.3,136.9,147.8,141.4z"/>
	<g>
		<path d="M463.9,435.9l-0.1-0.4c-12.6-32.9-41.7-59-84.2-75.5c-28-10.9-52.9-14.2-59.1-14.9l-12.1-9.1v-25
			c24.6-15.3,42.2-42.7,51-79.3c6.8-28.2,6-41.8,6-42.8l-0.3-7.3l-6.7,2.9c-34.5,14.9-69.9,22.4-105.1,22.4
			c-59.6,0-98.8-22-99.2-22.2l-6.9-4l-0.6,8c-3.2,45.9,12.9,70.7,27,91.9c12.3,18.4,25,29.8,29.9,33.8V338c0,0,0,0,0,0.1
			c-0.3,0.5-1.4,1.9-4.5,3.9c-6.1,3.8-19.3,9.4-48.2,14.5c-21,3.7-43.2,13.4-62.5,27.2c-18.5,13.3-32.3,29-37.8,43.1
			c-4.3,11.1-3.5,21.1,2.4,28.7c10.2,13.3,30,22.2,62.2,28c32.4,5.8,79.6,8.6,144.3,8.6c14.9,0,31.1-0.1,48.1-0.4
			c104.1-1.8,139.9-21.1,151.6-36.9C466.2,444.9,464.1,436.8,463.9,435.9z M233.6,338.3v-38.9l-10.1-7.5
			c-0.1-0.1-12.7-9.8-24.9-27.9c-9.9-14.8-16.6-20.8-19.9-37.5c18,5.2,43.8,10.5,74.6,10.5c26.3,0,52.8-3.8,78.9-11.2
			c-4.7,25.6-15.7,46-41.2,60.8l-12.5,7.2v57.3l30.9,23.1l7.1,0.6c0.2,0,24.8,2.4,52.4,13.1c15.8,6.1,29.3,13.7,40.2,22.5
			c10.3,8.4,18.3,18,23.6,28.6c-7.2,5.8-34.7,21-125.7,22.6c-16.9,0.3-32.8,0.4-47.5,0.4c-62.9,0-108.3-2.7-139-8.1
			c-27.4-4.9-38.1-11.1-42.3-15.2c0.4-1.4,1.4-3.8,3.7-7.3c11.9-18,43-40,74.3-45.5C189.5,380,234.1,368.6,233.6,338.3z"/>
		<path d="M147.2,180.9l-0.6,8c-3.2,45.9,12.9,70.7,27,91.9c12.3,18.4,25,29.8,29.9,33.8V338c0,0,0,0,0,0.1
			c-0.3,0.5-1.4,1.9-4.5,3.9c-6.1,3.8-19.3,9.4-48.2,14.5c-21,3.7-43.2,13.4-62.5,27.2c-18.5,13.3-32.3,29-37.8,43.1
			c-4.3,11.1-3.5,21.1,2.4,28.7c10.2,13.3,30,22.2,62.2,28c32.4,5.8,79.6,8.6,144.3,8.6c14.9,0,31.1-0.1,48.1-0.4
			c104.1-1.8,139.9-21.1,151.6-36.9c7.3-9.8,5.2-18,4.9-18.8l-0.1-0.4c-12.6-32.9-41.7-59-84.2-75.5c-28-10.9-52.9-14.2-59.1-14.9
			l-12.1-9.1v-25c24.6-15.3,42.2-42.7,51-79.3c6.8-28.2,6-41.8,6-42.8l-0.3-7.3l-6.7,2.9c-34.5,14.9-69.9,22.4-105.1,22.4
			c-59.6,0-98.8-22-99.2-22.2L147.2,180.9L147.2,180.9z M332.1,225.8c-4.7,25.6-15.7,46-41.2,60.8l-12.5,7.2v57.3l30.9,23.1l7.1,0.6
			c0.2,0,24.8,2.4,52.4,13.1c15.8,6.1,29.3,13.7,40.2,22.5c10.3,8.4,18.3,18,23.6,28.6c-7.2,5.8-34.7,21-125.7,22.6
			c-16.9,0.3-32.8,0.4-47.5,0.4c-62.9,0-108.3-2.7-139-8.1c-27.4-4.9-38.1-11.1-42.3-15.2c0.4-1.4,1.4-3.8,3.7-7.3
			c11.9-18,43-40,74.3-45.5c33.6-5.9,78.1-17.4,77.6-47.6v-38.9l-10.1-7.5c-0.1-0.1-12.7-9.8-24.9-27.9
			c-9.9-14.8-16.6-20.8-19.9-37.5c18,5.2,43.8,10.5,74.6,10.5C279.6,237,306.1,233.2,332.1,225.8L332.1,225.8z"/>
	</g>
</g>
</svg>
