<?xml version="1.0" encoding="utf-8"?>
<!-- Generator: Adobe Illustrator 22.0.1, SVG Export Plug-In . SVG Version: 6.00 Build 0)  -->
<svg version="1.1" id="图层_1" xmlns="http://www.w3.org/2000/svg" xmlns:xlink="http://www.w3.org/1999/xlink" x="0px" y="0px"
	 viewBox="0 0 512 512" style="enable-background:new 0 0 512 512;" xml:space="preserve">
<style type="text/css">
	.st0{fill-rule:evenodd;clip-rule:evenodd;}
</style>
<path d="M485.9,217c-1.2-3-2.7-6-4.6-8.8c-1-1.5-1.9-2.8-3-3.9l0,0l-16.2-16L347,88.2v0.4l-46.9-39.8
	c-12.3-12.3-25.8-18.4-40.2-18.3c-22.5,0.2-38.9,16-41.2,18.3C213,53.8,96.8,154.9,57.5,188.6c-17.8,15.3-25.9,30.1-23.9,44
	c2.5,17.6,19.9,26.2,21.6,27l40.3,19.7l0.5,67.9L60,379.9l-0.4,0.6c-15.4,22.4-12.3,42.7-7,55.8c5.3,13.3,14,21.8,15.1,22.9
	c14.3,14.3,29.9,21.5,46.4,21.5c0.8,0,1.7,0,2.5-0.1c25.3-1.1,44.5-19,50.8-25.6h226.7l0.5-0.1c24.1-3.4,28.2-32.7,28.4-33.9
	l0.1-0.4l1.6-137.8l50-23.4l0.8-0.7C488.1,247,491.8,232.1,485.9,217z M375.7,417.2L207,416.7l46.6-43.9c42-0.1,72.3-11.9,90.1-35.2
	c27.8-36.3,14.1-86.4,13.5-88.5l-1.2-4.3l-48.4-6l-23.1,21.4l-4.3-4.7l22.7-21.4l-5.6-53.3l-5.5-0.6c-43.3-4.4-76.6,4.4-98.9,26.1
	c-27.6,26.8-29.3,64.6-29.2,75.8L135,310.5l0-54.8l-55.9-25.6L79,230c-3.8-1.6-5.3-3.2-5.3-4.1c-0.3-2.9,5.5-9.2,10.8-12.9l0.3-0.2
	L236.5,81.3l0.3-0.2c7.7-7.4,15.6-10.9,23.4-10.4c13,0.8,22.5,12.1,22.5,12.2l0.4,0.5l156.3,135.7l0.6,0.5c4.4,3,5.9,5.4,5.9,6.6
	c0,1.1-1.2,2.5-2.3,3.5l-60,31.4l-0.3,137.2C382.6,412.7,378.1,416.9,375.7,417.2z M93.2,400.1l106.5-98.4l2.6-2.4l-0.5-3.5
	c-0.1-0.4-5.4-39.9,15.5-63c10.2-11.3,25.3-17,44.9-17.1l0.7,2.9l-37,36.9l57.2,58.6l35.2-35.9l6.1,2c-0.7,7.9-3.7,24.6-16.9,37
	c-14.6,13.6-37.5,18.7-68.1,15.2l-3.2-0.4L134,433.1l-0.5-0.4c-0.1,0.1-7.5,9.5-17.8,10.1c-6.4,0.4-12.9-2.7-19.4-9.2l-0.6-0.5
	c-0.1-0.1-8.5-6.9-9.2-16.3C85.9,411.2,88.2,405.7,93.2,400.1z"/>
</svg>
