<?xml version="1.0" encoding="utf-8"?>
<!-- Generator: Adobe Illustrator 22.0.1, SVG Export Plug-In . SVG Version: 6.00 Build 0)  -->
<svg version="1.1" id="图层_1" xmlns="http://www.w3.org/2000/svg" xmlns:xlink="http://www.w3.org/1999/xlink" x="0px" y="0px"
	 viewBox="0 0 512 512" style="enable-background:new 0 0 512 512;" xml:space="preserve">
<style type="text/css">
	.st0{fill-rule:evenodd;clip-rule:evenodd;}
</style>
<g>
	<g>
		<path d="M446.3,132.1c7.6-12.1,15.6-26.9,21.1-41.8c7.4-20.3,4.6-39-7.2-50c-11.4-10.5-29-11.7-47-3.4c-4.3,2-7.7,3.6-11.3,5.3
			c-6.7,3.2-9.4,11.2-6.2,17.9c3.2,6.7,11.2,9.4,17.9,6.2c3.3-1.6,6.7-3.2,10.7-5.1c7.7-3.6,14.7-4,17.7-1.1
			c2.7,2.5,4.4,9.5,0.2,21.1c-5.7,15.8-16.9,35.7-30.5,54.5c-47.7,65.5-90.7,115.6-131.5,153.1l-0.1,0.1
			c-52.8,49.8-103.2,86.5-143.7,116l-3.8,2.7c-0.5,0.4-1,0.7-1.5,1.1c-44-36.4-72.1-91.5-72.1-152.9c0-109.6,89.1-198.7,198.7-198.7
			c27.9,0,54.9,5.7,80.3,16.9c6.7,3,14.7-0.1,17.6-6.9c3-6.7-0.1-14.7-6.9-17.6c-28.7-12.8-59.4-19.2-91-19.2
			c-60.3,0-116.9,23.4-159.4,66c-42.6,42.6-66,99.2-66,159.4c0,38.5,9.6,75.6,27.7,108.4c-8,10.6-19,27.2-27.2,47.9
			c-7,17.6-4.8,34.5,5.8,45.2c4.4,4.4,12.8,10,26.5,10c7.5,0,16.6-1.7,27.5-6c11.7-4.7,24.6-11.5,37.5-19.6
			c37.3,25.7,81.5,39.6,127.7,39.6c60.3,0,116.9-23.4,159.4-66c42.6-42.6,66-99.2,66-159.4C483.1,211.5,470.4,168.9,446.3,132.1
			L446.3,132.1z M82.5,436.4c-14.2,5.7-22.4,4.6-25.1,1.8c-2.7-2.7-2.7-9.3,0.1-16.3c5.3-13.3,11.9-24.7,17.8-33.5
			c6.9,9.4,14.5,18.3,22.9,26.7c3,3,6.1,5.9,9.3,8.8C98.7,429.1,90.1,433.3,82.5,436.4L82.5,436.4z M257.7,454.5
			c-38,0-73.6-10.7-103.8-29.3c40.8-29.7,91.2-66.6,144.4-116.8c41-37.8,84.1-87.6,131.4-152.2c17.5,30.2,26.7,64.3,26.7,99.6
			C456.4,365.4,367.3,454.5,257.7,454.5L257.7,454.5z M184.1,142.6c0-10,4.1-20,11.2-27c7.1-7.1,17.1-11.2,27-11.2
			c10,0,20,4.1,27,11.2c7.1,7.1,11.2,17.1,11.2,27c0,10-4.1,20-11.2,27c-7.1,7.1-17.1,11.2-27,11.2c-10,0-20-4.1-27-11.2
			C188.2,162.6,184.1,152.6,184.1,142.6L184.1,142.6z M127.5,265.3c0-5.8,2.3-11.5,6.5-15.6c4.1-4.1,9.8-6.5,15.6-6.5
			c5.8,0,11.5,2.3,15.6,6.5c4.1,4.1,6.5,9.8,6.5,15.6c0,5.8-2.4,11.5-6.5,15.6c-4.1,4.1-9.8,6.5-15.6,6.5c-5.8,0-11.5-2.3-15.6-6.5
			C129.9,276.7,127.5,271,127.5,265.3L127.5,265.3z M306.8,371c0-3.7,1.5-7.4,4.2-10.1c2.7-2.6,6.3-4.2,10.1-4.2
			c3.7,0,7.4,1.5,10.1,4.2c2.6,2.6,4.2,6.3,4.2,10.1c0,3.7-1.5,7.4-4.2,10c-2.6,2.7-6.3,4.2-10.1,4.2c-3.7,0-7.4-1.5-10.1-4.2
			C308.4,378.4,306.8,374.7,306.8,371L306.8,371z M306.8,371"/>
	</g>
</g>
</svg>
