<?xml version="1.0" encoding="utf-8"?>
<!-- Generator: Adobe Illustrator 22.0.1, SVG Export Plug-In . SVG Version: 6.00 Build 0)  -->
<svg version="1.1" id="图层_1" xmlns="http://www.w3.org/2000/svg" xmlns:xlink="http://www.w3.org/1999/xlink" x="0px" y="0px"
	 viewBox="0 0 512 512" style="enable-background:new 0 0 512 512;" xml:space="preserve">
<style type="text/css">
	.st0{fill-rule:evenodd;clip-rule:evenodd;}
</style>
<g>
	<path d="M504.7,298.2c-1.3-0.5-2.7,0.1-3.3,1.3c-13.2,26.1-39.5,49.5-74.4,66.2c-37.3,17.8-81.9,27.2-128.8,27.2
		C180.6,393,85,333,85,259.3c0-73.7,95.6-133.7,213.1-133.7c47,0,91.5,9.4,128.8,27.2c34.9,16.7,61.3,40.1,74.4,66.2
		c0.6,1.2,2.1,1.8,3.3,1.3c1.3-0.5,2-2,1.5-3.3c-13-37.9-43.8-72.2-87-96.8c-44.5-25.4-100.7-39.3-158-39.3
		c-67.2,0-130.4,18.5-177.9,52C35.5,166.6,9.2,211.5,9.2,259.3c0,47.8,26.3,92.7,74.2,126.4c47.6,33.5,110.7,52,177.9,52
		c57.3,0,113.5-14,158-39.3c43.2-24.6,74-58.9,87-96.8C506.7,300.2,506,298.7,504.7,298.2z"/>
	<path d="M267.2,169.9c23.7-20.5,83.9-10.7,84.5-10.6l1.2-4.8c-24.6-8.6-61.9-12.2-95.2-9.2c-40.8,3.7-70.6,16.7-83.7,36.6
		c-5,7.6-6.7,14.5-5.2,21.3c3.2,14.3,19.9,24.4,39.2,36.2c21.2,13,45.3,27.7,53.8,50.3c2.3,6.1,2,11.6-0.9,16.8
		c-11.5,20.6-59.3,30.2-85.1,35.3c-16,3.2-18.8,3.8-18.7,7c0.1,2.8,3.1,3.4,9.9,4.1c5,0.5,10.6,0.8,16.6,0.8
		c23.8,0,54.4-3.8,80.4-10.2c29.8-7.4,66.7-21.2,72.9-45.2c5.6-21.8-14.3-35.9-35.4-50.8c-21.2-15-43.2-30.6-43.8-55.5
		C257.7,182.7,260.7,175.5,267.2,169.9z"/>
	<polygon points="425.5,154.3 367.6,154.3 340.5,335.3 398.3,335.3 	"/>
</g>
</svg>
