<?xml version="1.0" encoding="utf-8"?>
<!-- Generator: Adobe Illustrator 22.0.1, SVG Export Plug-In . SVG Version: 6.00 Build 0)  -->
<svg version="1.1" id="图层_1" xmlns="http://www.w3.org/2000/svg" xmlns:xlink="http://www.w3.org/1999/xlink" x="0px" y="0px"
	 viewBox="0 0 512 512" style="enable-background:new 0 0 512 512;" xml:space="preserve">
<style type="text/css">
	.st0{fill-rule:evenodd;clip-rule:evenodd;}
</style>
<g>
	<g>
		<path d="M344.9,251.8c25.2-24.5,39.1-57,39.1-91.4s-13.9-66.9-39.1-91.5c-25.2-24.5-58.5-38-93.9-38s-68.7,13.5-93.9,38
			c-25.2,24.5-39.1,57-39.1,91.5c0,22,5.6,43.7,16.2,62.7c8.6,15.5,20.5,29,34.6,39.6c-18.7,6.9-36.4,16.2-52.6,27.7
			c-19,13.5-35.7,29.7-49.6,48.2c-28.8,38.4-44.1,84-44.1,131.9v5.5h43v-5.5c0-99.6,83.2-180.6,185.5-180.6
			C286.4,289.9,319.7,276.4,344.9,251.8z M161.1,160.4c0-48.3,40.3-87.6,89.9-87.6c49.6,0,89.9,39.3,89.9,87.6
			c0,48.3-40.3,87.6-89.9,87.6C201.4,248,161.1,208.7,161.1,160.4z M358.8,260.1c58.5,21.4,94.1,89.7,63.6,145.1l-74.3-72.7
			l28.3-27.7l-17.7-17.2c-9.8,9.3-25.3,11.3-35.8,7.2l-56.4,55l32,31l21.3-20.7l74.2,72.6c-36.3,19.4-86.7,13.3-123.9-24.3l-18,17.5
			c5.4,7.3,9.9,13.9,15.5,19.4c-0.5,0.6-2,1.8-2.1,1.8c-0.9-0.1-2.1-0.5-3.1-0.5c-9.6,0-17.3,8.1-17.3,17.5
			c0,9.3,7.8,16.9,17.4,16.9c9.6,0,17.8-7.7,17.8-17c0-1.1-0.3-2.1-0.4-3.1l2.8-2.6c42.7,28.1,89.6,31.6,139.9,2.2l20.8,20.3
			l28.5-27.4l-20.9-20.6C511.1,344.7,431,258,358.8,260.1z"/>
	</g>
</g>
</svg>
