<?xml version="1.0" encoding="utf-8"?>
<!-- Generator: Adobe Illustrator 22.0.1, SVG Export Plug-In . SVG Version: 6.00 Build 0)  -->
<svg version="1.1" id="图层_1" xmlns="http://www.w3.org/2000/svg" xmlns:xlink="http://www.w3.org/1999/xlink" x="0px" y="0px"
	 viewBox="0 0 512 512" style="enable-background:new 0 0 512 512;" xml:space="preserve">
<style type="text/css">
	.st0{fill-rule:evenodd;clip-rule:evenodd;}
</style>
<path class="st0" d="M402.3,326.2l79.4-62.3l-99.5-0.4l-33.9-96.9l-33.4,95.4c-10.6-5.7-24.3-12.6-39.1-18.8
	c26.9-20.1,44.3-52.2,44.3-88.3c0-60.7-49.3-110-109.8-110c-60.6,0-109.8,49.4-109.8,110c0,34.1,15.6,64.6,39.9,84.8
	c-69.4,27.9-118.6,96-118.6,175.4v5h40v-5c0-82.1,66.6-148.9,148.4-148.9c1.8,0,3.7,0.1,5.7,0.3l75,59.4l-27.7,97.1l84.1-60
	l82.1,59.8L402.3,326.2z M210.2,84.9c38.5,0,69.8,31.4,69.8,70s-31.3,70-69.8,70c-38.5,0-69.8-31.4-69.8-70S171.7,84.9,210.2,84.9z"
	/>
</svg>
