<?xml version="1.0" encoding="utf-8"?>
<!-- Generator: Adobe Illustrator 22.0.1, SVG Export Plug-In . SVG Version: 6.00 Build 0)  -->
<svg version="1.1" id="图层_1" xmlns="http://www.w3.org/2000/svg" xmlns:xlink="http://www.w3.org/1999/xlink" x="0px" y="0px"
	 viewBox="0 0 512 512" style="enable-background:new 0 0 512 512;" xml:space="preserve">
<style type="text/css">
	.st0{fill-rule:evenodd;clip-rule:evenodd;}
</style>
<g>
	<g>
		<path d="M145.6,140.5c0,42.4,33,76.8,73.6,76.8c40.7,0,73.6-34.4,73.6-76.8c0-42.4-33-76.8-73.6-76.8
			C178.6,63.7,145.6,98.1,145.6,140.5L145.6,140.5z M145.6,140.5"/>
		<path d="M375.7,387.3c-5.6-12.3-17-48.8-30-48.8c-13.1,0-14.1,4.9-14.1,4.9l14.1,37.7l-72.2-6.3l-30.6-72.2
			c-29.9-73.6-59.7-82-88.9-82c-14.1,0-43.8,1.7-66.5,30.4c-22.7,28.7-36.6,187.7-36.6,187.7h138.3l-49.7-96.6l21-13.3
			c0,0,3.7,8,28.1,59.9c24.4,51.9,41.1,59,41.1,59h130c19.1,0,34.6-6.2,34.6-30.9C394.2,392.2,375.7,387.3,375.7,387.3L375.7,387.3z
			 M375.7,387.3"/>
	</g>
	<path d="M326.9,243.7c0,0-13.4,25.9-24.1,37c-10.7,11.1-31.5,39.4-15.3,62.1l47.7-78.3l99.6,45.5l-36.6,54.6c0,0-5.1,21.8,1.9,22.7
		c6.9,0.9,60.7-86.6,60.7-86.6L326.9,243.7z M326.9,243.7"/>
</g>
</svg>
