<?xml version="1.0" encoding="utf-8"?>
<!-- Generator: Adobe Illustrator 22.0.1, SVG Export Plug-In . SVG Version: 6.00 Build 0)  -->
<svg version="1.1" id="图层_1" xmlns="http://www.w3.org/2000/svg" xmlns:xlink="http://www.w3.org/1999/xlink" x="0px" y="0px"
	 viewBox="0 0 512 512" style="enable-background:new 0 0 512 512;" xml:space="preserve">
<style type="text/css">
	.st0{fill-rule:evenodd;clip-rule:evenodd;}
</style>
<path d="M319.7,252.7l-0.1,4.9c-0.9,72.5-60.6,131.5-133.1,131.5c-73.4,0-133.1-59.7-133.1-133.1c0-73.4,59.7-133.1,133.1-133.1
	c25.6,0,50.5,7.3,71.9,21.1l4.4,2.8l13.8-23.8l-4.1-2.6c-25.7-16.2-55.3-24.8-85.8-24.8C98.2,95.6,26.2,167.6,26.2,256
	c0,88.4,72.1,160.4,160.7,160.4c42.6,0,82.7-16.5,113-46.4c30.2-29.9,47.2-69.8,47.6-112.2l0.1-5.1H319.7z"/>
<path class="st0" d="M305.2,113c-10.8,6.8-13.2,22.2-5.3,34.4l142.9,220.8l39.1-24.6L339,122.8C331.1,110.6,316,106.2,305.2,113z"/>
<path class="st0" d="M323.6,253.1h94.9v34.5h-94.9V253.1z"/>
<path class="st0" d="M327.4,113c10.7,6.8,13.1,22.3,5.3,34.6L193.1,367l-38.8-24.7l139.6-219.4C301.7,110.6,316.7,106.2,327.4,113z"
	/>
</svg>
