<?xml version="1.0" encoding="utf-8"?>
<!-- Generator: Adobe Illustrator 22.0.1, SVG Export Plug-In . SVG Version: 6.00 Build 0)  -->
<svg version="1.1" id="图层_1" xmlns="http://www.w3.org/2000/svg" xmlns:xlink="http://www.w3.org/1999/xlink" x="0px" y="0px"
	 viewBox="0 0 512 512" style="enable-background:new 0 0 512 512;" xml:space="preserve">
<style type="text/css">
	.st0{fill-rule:evenodd;clip-rule:evenodd;}
</style>
<g>
	<path class="st0" d="M462.1,204.9c-5.4-8.5-58.8-58.4-149-141.7c-15.6-14.4-28-25.8-32.4-30c-7.8-7.4-16.2-11.2-24.8-11.2
		c-8.6,0-16.9,3.8-24.7,11.2c-2.8,2.7-12.3,11.3-25.3,23.2C117.5,137.1,57,193.3,49.4,205.6c-5.2,8.4-5.6,18.5-0.8,27
		c5.1,9.1,15,14.6,26.6,14.6h4.5v207c0,19.3,15.7,35.1,35.1,35.1h282.5c19.3,0,35.1-15.7,35.1-35.1v-207h4.1
		c11.7,0,22.2-5.8,27.3-15.2C468.3,223.5,467.7,213.7,462.1,204.9z M397.3,239.9c0,0.4,0,3.2,0,4.7l-0.1,209.7l-282.6-0.1V244.6
		c0-1.7,0-5,0-5l-0.1-27.4H90.4c8.6-8.7,23.3-22.9,48.4-46.4c31.2-29.2,67-61.8,90.8-83.5c13.7-12.5,22.8-20.8,25.9-23.8
		c0.2-0.2,0.4-0.4,0.6-0.5c0.2,0.2,0.4,0.4,0.6,0.6C261.2,63,273,73.9,289.3,89c32.8,30.3,102.5,94.6,131.7,123.2h-24L397.3,239.9z"
		/>
	<path class="st0" d="M295.9,224.1c-15.8,0-30.3,5.7-41.6,15.1c-11.2-9.4-25.7-15.1-41.6-15.1c-35.6,0-64.5,28.6-64.5,63.9
		c0,12.5,3.6,24.1,9.8,33.9c0.1,0.1,0.1,0.2,0.2,0.3c0,0,0.1,0.1,0.1,0.1c3.6,5.6,8.1,10.6,13.2,14.9c23.3,25.1,68.7,72.2,73.3,76.4
		c5.3,4.8,13.5,5,18.8,0c6.8-6.5,49.4-51.1,72.2-75.5c14.9-11.7,24.5-29.8,24.5-50.1C360.4,252.7,331.5,224.1,295.9,224.1z"/>
</g>
</svg>
