<?xml version="1.0" encoding="utf-8"?>
<!-- Generator: Adobe Illustrator 22.0.1, SVG Export Plug-In . SVG Version: 6.00 Build 0)  -->
<svg version="1.1" id="图层_1" xmlns="http://www.w3.org/2000/svg" xmlns:xlink="http://www.w3.org/1999/xlink" x="0px" y="0px"
	 viewBox="0 0 512 512" style="enable-background:new 0 0 512 512;" xml:space="preserve">
<style type="text/css">
	.st0{fill-rule:evenodd;clip-rule:evenodd;}
</style>
<g>
	<path d="M323.9,246.1h40.1l81-69.8c-3.5-8.3-7.5-16.3-12-24l-107.5,92.4L323.9,246.1z M265.9,51v32.9l33-28.5
		C288.2,53.1,277.2,51.5,265.9,51L265.9,51z M435.6,246.1l23.4-20.1c-1.4-9.8-3.7-19.4-6.5-28.7l-56.8,48.8L435.6,246.1L435.6,246.1
		z M368.6,84.5l-102.7,88.3v34.5l123.9-106.8C383.2,94.7,376,89.3,368.6,84.5L368.6,84.5z M323.1,61.9l-57.1,49.1v34.5l83.7-72.2
		C341.1,69.1,332.3,65.1,323.1,61.9L323.1,61.9z M421.6,134.8c-5.1-7-10.6-13.6-16.6-19.9l-139,119.5v11.6h26.5L421.6,134.8z
		 M246.5,51C137.7,56.1,51,145.7,51,255.7c0,47.6,16.4,91.4,43.6,126.2l151.9-130.6V51z M259.8,265.4L107.2,396.6
		c37.4,39.6,90.2,64.4,149,64.4c110.1,0,199.6-86.7,204.8-195.6H259.8z M259.8,265.4"/>
</g>
</svg>
