<?xml version="1.0" encoding="utf-8"?>
<!-- Generator: Adobe Illustrator 22.0.1, SVG Export Plug-In . SVG Version: 6.00 Build 0)  -->
<svg version="1.1" id="图层_1" xmlns="http://www.w3.org/2000/svg" xmlns:xlink="http://www.w3.org/1999/xlink" x="0px" y="0px"
	 viewBox="0 0 512 512" style="enable-background:new 0 0 512 512;" xml:space="preserve">
<style type="text/css">
	.st0{fill-rule:evenodd;clip-rule:evenodd;}
</style>
<path d="M25.5,53.7v404.7h461.1V53.7H25.5z M63.4,166.5V91.6h103.1v74.9H63.4z M63.4,279.3v-74.9h103.1v74.9H63.4z M63.4,420.4
	V317.3h103.1v103.1H63.4z M204.5,166.5V91.6h103.1v74.9H204.5z M204.5,279.3v-74.9h103.1v74.9H204.5z M204.5,420.4V317.3h103.1
	v103.1H204.5z M345.5,166.5V91.6h103.1v74.9H345.5z M345.5,279.3v-74.9h103.1v74.9H345.5z M345.5,420.4V317.3h103.1v103.1H345.5z"/>
</svg>
