<?xml version="1.0" encoding="utf-8"?>
<!-- Generator: Adobe Illustrator 22.0.1, SVG Export Plug-In . SVG Version: 6.00 Build 0)  -->
<svg version="1.1" id="图层_1" xmlns="http://www.w3.org/2000/svg" xmlns:xlink="http://www.w3.org/1999/xlink" x="0px" y="0px"
	 viewBox="0 0 512 512" style="enable-background:new 0 0 512 512;" xml:space="preserve">
<style type="text/css">
	.st0{fill-rule:evenodd;clip-rule:evenodd;}
</style>
<g>
	<path class="st0" d="M410.5,456.3c-6-10.5-122.4-47.1-138-53c-12.7-4.8-15.8-5.2-30,0c-14.1,5.1-129.9,38.2-138.4,53.5
		c-6.2,11.2,6.8,27.4,21,27.4h268.3C406.3,484.2,418,469.5,410.5,456.3z"/>
</g>
<path d="M390.3,40.2H121.7c-54.8,0-99.3,47.8-99.3,106.6v125.1c0,58.8,44.6,106.6,99.3,106.6h268.6c54.8,0,99.3-47.8,99.3-106.6
	V146.7C489.6,88,445.1,40.2,390.3,40.2z M454,146.7v125.1c0,38.3-28.6,69.4-63.8,69.4H121.7c-35.2,0-63.8-31.1-63.8-69.4V146.7
	c0-38.3,28.6-69.4,63.8-69.4h268.6C425.4,77.3,454,108.5,454,146.7z"/>
<path d="M340.9,266.4c-9.6-7.4-21.8-15.5-32.9-22.6c10.8-14.8,16.8-32.7,16.8-51.2c0-47.7-38.8-86.5-86.5-86.5s-86.5,38.8-86.5,86.5
	c0,47.7,38.8,86.5,86.5,86.5c19.3,0,37.5-6.2,52.7-18l1.3-1c5.4,8.6,12.1,18.6,20.2,29.6C339,325.9,369.9,288.7,340.9,266.4z
	 M274.9,238c-10.5,8.4-23.1,12.9-36.5,12.9c-32.1,0-58.2-26.1-58.2-58.3s26.1-58.3,58.2-58.3s58.2,26.1,58.2,58.3
	c0,14.2-5.2,27.9-14.5,38.5l-3.3,3.7L274.9,238z"/>
</svg>
