<?xml version="1.0" encoding="utf-8"?>
<!-- Generator: Adobe Illustrator 22.0.1, SVG Export Plug-In . SVG Version: 6.00 Build 0)  -->
<svg version="1.1" id="图层_1" xmlns="http://www.w3.org/2000/svg" xmlns:xlink="http://www.w3.org/1999/xlink" x="0px" y="0px"
	 viewBox="0 0 512 512" style="enable-background:new 0 0 512 512;" xml:space="preserve">
<style type="text/css">
	.st0{fill-rule:evenodd;clip-rule:evenodd;}
</style>
<g>
	<polygon points="480.9,270.3 375.5,269.9 339.8,167.8 342.9,285.1 383,348.5 371.6,399.5 425.5,438.7 396.9,336.3 	"/>
	<path d="M303.9,278.5l6-10.9l-4.4-2.4c-7.3-4-15.9-8.5-25.4-12.6c27-20.5,44.4-53,44.4-89.5c0-61.9-50.3-112.3-112-112.3
		c-61.8,0-112,50.4-112,112.3c0,35.1,16.1,66.4,41.4,87C70.5,278.4,19.9,348.2,19.9,429.7v5h40v-5c0-81.6,64-148.5,144.2-152.8
		l74.8,59.2l-29.3,102.8l80.9-57.7l2.4-16l-30.1-40.1L303.9,278.5z M212.5,90.8c39.7,0,72,32.4,72,72.3c0,39.8-32.3,72.3-72,72.3
		c-39.7,0-72-32.4-72-72.3C140.4,123.2,172.7,90.8,212.5,90.8z"/>
</g>
</svg>
