<?xml version="1.0" encoding="utf-8"?>
<!-- Generator: Adobe Illustrator 22.0.1, SVG Export Plug-In . SVG Version: 6.00 Build 0)  -->
<svg version="1.1" id="图层_1" xmlns="http://www.w3.org/2000/svg" xmlns:xlink="http://www.w3.org/1999/xlink" x="0px" y="0px"
	 viewBox="0 0 512 512" style="enable-background:new 0 0 512 512;" xml:space="preserve">
<style type="text/css">
	.st0{fill-rule:evenodd;clip-rule:evenodd;}
</style>
<g>
	<path d="M70.6,181.1C30.3,62.7,92.5,30.2,92.5,30.2c0,0-90.9,11.3-31.1,202.2c59.8,190.9,93.3,248.8,93.3,248.8s36.4,0.8,25-31.2
		S98.5,263.1,70.6,181.1z"/>
	<path d="M307.7,294.5c-101.1-7.8-146.9-87.5-140-116.6c7-29.2,70-6.7,93.3,15.5c23.3,22.3-8.1-64,14.7-92.5
		c18.7-23.4,47.1-15.7,55.3,22.5c8.2,38.3,15.9,145.6,23.3,85.5c0,0,35.4-153.2-38.9-163.3c-74.3-10-77.8,77.8-77.8,77.8
		s-73.1-38.1-101.1,46.7s77.1,159.9,147.7,163.3C355,336.7,471,216.8,471,216.8S384.9,300.5,307.7,294.5z"/>
</g>
</svg>
