<?xml version="1.0" encoding="utf-8"?>
<!-- Generator: Adobe Illustrator 22.0.1, SVG Export Plug-In . SVG Version: 6.00 Build 0)  -->
<svg version="1.1" id="图层_1" xmlns="http://www.w3.org/2000/svg" xmlns:xlink="http://www.w3.org/1999/xlink" x="0px" y="0px"
	 viewBox="0 0 512 512" style="enable-background:new 0 0 512 512;" xml:space="preserve">
<style type="text/css">
	.st0{fill-rule:evenodd;clip-rule:evenodd;}
</style>
<g>
	<path d="M256.1,30.2c62.4,0,118.8,25.3,159.8,66.3l0.7,0.9C457,138,481.8,194.1,481.8,256c0,24.3-3.8,47.8-11.1,69.8
		c-6.8,21-16.6,40.7-29,58.4v80.1c0,9.6-7.6,17.4-17.3,17.4H256.1c-62.4,0-118.8-25.3-159.5-66v-0.2l-0.3,0.2
		C55.3,374.7,30.2,318.4,30.2,256c0-62.4,25.1-118.8,66.3-159.5h-0.3C137.2,55.4,193.7,30.2,256.1,30.2L256.1,30.2z M143.4,210.6
		h225.1c5.9,0,10.3-4.6,10.3-10.2c0-5.8-4.5-10.5-10.3-10.5H143.4c-5.7,0-10.3,4.7-10.3,10.5C133,206.1,137.7,210.6,143.4,210.6
		L143.4,210.6z M143.4,266.4h225.1c5.9,0,10.3-4.7,10.3-10.3c0-5.7-4.5-10.5-10.3-10.5H143.4c-5.7,0-10.3,4.8-10.3,10.5
		C133,261.7,137.7,266.4,143.4,266.4L143.4,266.4z M143.4,322h225.1c5.9,0,10.3-4.8,10.3-10.5c0-5.7-4.5-10.4-10.3-10.4H143.4
		c-5.7,0-10.3,4.7-10.3,10.4C133,317.1,137.7,322,143.4,322L143.4,322z M391.2,120.9c-34.8-34.8-82.4-56-135.1-56
		c-52.7,0-100.6,21.2-135.1,56l-0.1-0.1v0.1C86.5,155.4,65,203.1,65,256c0,52.8,21.5,100.6,56,134.9h-0.1
		c34.6,34.8,82.5,56.1,135.2,56.1H407v-68.2h0.2c0-3.6,1-7.2,3.2-10.1c11.8-16.3,21-34.1,27.2-53.5c6.2-18.7,9.4-38.5,9.4-59.2
		c0-52.5-21.1-100-55.1-134.4L391.2,120.9z M391.2,120.9"/>
</g>
</svg>
