<?xml version="1.0" encoding="utf-8"?>
<!-- Generator: Adobe Illustrator 22.0.1, SVG Export Plug-In . SVG Version: 6.00 Build 0)  -->
<svg version="1.1" xmlns="http://www.w3.org/2000/svg" xmlns:xlink="http://www.w3.org/1999/xlink" x="0px" y="0px"
	 viewBox="0 0 512 512" style="enable-background:new 0 0 512 512;" xml:space="preserve">
<style type="text/css">
	.st0{opacity:0.5;}
	.st1{fill:#040000;}
</style>
<g id="尺寸参考线" class="st0">
</g>
<g id="图层_2">
	<g>
		<g>
			<path d="M223.7,461c-4.6,0-9-2.8-10.8-7.4L81.6,105.3c-2.2-5.9,0.8-12.6,6.7-14.8c5.9-2.2,12.6,0.8,14.8,6.7l131.3,348.3
				c2.2,5.9-0.8,12.6-6.7,14.8C226.4,460.8,225,461,223.7,461L223.7,461z M223.7,461"/>
			<path d="M173.4,322.3c-2,0-4.1-0.5-6-1.7c-5.4-3.3-7.1-10.4-3.8-15.8c3.9-6.5,24.5-39.3,41.7-49c34.3-19.3,69.5-10.7,103.6-2.4
				c21.8,5.3,42.4,10.4,62.4,8.4c1.5-0.1,9-1.7,17.4-4.6c9.3-3.1,13.5-5.6,15.2-6.8c0.4-9.9,2-46.6,3.1-85.1
				c1.1-40.7,1.2-64.6,0.9-78.6c-5.7,4.1-11.6,7.5-16,10c-17.5,9.6-36.6,16.5-53.5,19.5c-24,4.2-43.2,0.3-55.8-11.2
				c-28.3-26.1-86.4-22.1-110.2-6.8c-31.8,20.4-76.8,17.8-78.7,17.7c-6.3-0.4-11.1-5.9-10.7-12.2c0.4-6.3,5.9-11.1,12.2-10.7
				c0.8,0,39.6,2.2,64.8-14.1c16.5-10.6,41.8-16.5,67.6-15.8c28.9,0.8,54,9.7,70.6,25c8.9,8.2,24.6,7.5,36.2,5.5
				c14.4-2.5,31.3-8.7,46.5-17c15.7-8.6,23.1-15.9,24.2-18.1c3.6-7,10.1-8.2,14.5-7c3.3,0.9,7.7,3.5,9.4,10.9c0.5,2,0.8,4.6,1.1,7.8
				c0.5,5.4,0.8,12.8,0.9,22.6c0.2,16,0,38-0.8,65.6c-1.2,47-3.4,93.6-3.5,95.6c-0.6,12.4-14.5,19.1-26.6,23.6
				c-10.2,3.8-21.8,6.6-26.7,7.1c-24,2.3-47.4-3.4-70.1-9c-31.1-7.6-60.4-14.8-86.8,0.1c-8.3,4.7-23.4,24.6-33.4,41
				C181.1,320.3,177.3,322.3,173.4,322.3L173.4,322.3z M173.4,322.3"/>
		</g>
		<path d="M417.6,68.4c3.3,8.7,0,187.6,0,187.6s-28.2,30.4-80.3,19.5s-95.4-29.3-117.1-13s-38,35.8-42.3,47.7
			c-4.3,11.9-85.7-202.8-85.7-202.8c1.1-1.1,35.8-1.1,66.2-17.4s78.1-22.8,103-9.8s38,31.5,69.4,27.1"/>
	</g>
</g>
</svg>
