<?xml version="1.0" encoding="utf-8"?>
<!-- Generator: Adobe Illustrator 22.0.1, SVG Export Plug-In . SVG Version: 6.00 Build 0)  -->
<svg version="1.1" xmlns="http://www.w3.org/2000/svg" xmlns:xlink="http://www.w3.org/1999/xlink" x="0px" y="0px"
	 viewBox="0 0 512 512" style="enable-background:new 0 0 512 512;" xml:space="preserve">
<style type="text/css">
	.st0{opacity:0.5;}
	.st1{fill:#040000;}
</style>
<g id="尺寸参考线" class="st0">
</g>
<g id="图层_2">
	<g>
		<g>
			<path d="M416.2,235.9c-6-65.5-46-100.7-71.3-117c-27.6-17.8-55-21.2-55.3-21.2l-1.4-0.2v24.9l-34-36.3l36.4-35.3v22.9l1,0.2
				c33.6,7.9,62.4,20.5,85.5,39.2c18.5,15,33.5,33.3,44.5,54.4c16.6,32,19.2,60.9,19.5,67.2L416.2,235.9z M236,95.2
				c-65.5,6-100.7,46-117,71.3c-17.8,27.6-21.2,55-21.2,55.3l-0.2,1.4h24.9l-36.3,34l-35.3-36.4h22.9l0.2-1
				c7.9-33.6,20.5-62.4,39.2-85.5c15-18.5,33.3-33.5,54.4-44.5c32-16.6,60.9-19.2,67.2-19.5L236,95.2z M94,275.7
				c6,65.5,46,100.7,71.3,117c27.6,17.8,55,21.2,55.3,21.2l1.4,0.2v-24.9l34,36.3l-36.4,35.3v-22.9l-1-0.2
				c-33.6-7.9-62.4-20.5-85.5-39.2c-18.5-15-33.5-33.3-44.5-54.4c-16.6-32-19.2-60.9-19.5-67.2L94,275.7z M275.5,418.8
				c65.5-6,100.7-46,117.1-71.3c17.8-27.6,21.2-55,21.2-55.3l0.2-1.4H389l36.3-34l35.3,36.4h-22.9l-0.2,1
				c-7.9,33.6-20.5,62.4-39.2,85.5c-15,18.5-33.3,33.5-54.4,44.5c-32,16.6-60.9,19.2-67.2,19.5L275.5,418.8z M255.3,341.2
				c-18,0-35.5-4.5-52-13.4c-13.2-7.1-25.9-17-37.6-29.5c-18.2-19.4-28.5-39-30.3-42.5c1.8-3.6,12.2-23.2,30.5-42.5
				c11.8-12.5,24.4-22.4,37.7-29.5c16.5-8.9,33.9-13.4,51.8-13.4c16.9,0,33.7,4.5,50,13.4c13.1,7.1,25.8,17.1,37.9,29.6
				c18.6,19.3,29.9,38.8,32,42.4c-2.1,3.7-13.5,23.2-32.2,42.5c-12.1,12.5-24.9,22.4-37.9,29.5C288.9,336.7,272.1,341.2,255.3,341.2
				L255.3,341.2z M255.3,202.4c-29.5,0-53.5,23.9-53.5,53.4c0,29.4,24,53.4,53.5,53.4c29.5,0,53.5-23.9,53.5-53.4
				C308.8,226.3,284.8,202.4,255.3,202.4L255.3,202.4z M255.3,202.4"/>
		</g>
		<path d="M255.3,288c-17.9,0-32.5-14.5-32.5-32.2v0c0-3.9,0.7-7.6,2-11l32.5,13.3l-9.7-33.5c2.6-0.6,5.2-0.9,7.7-0.9
			c17.9,0,32.5,14.4,32.5,32.2C287.8,273.5,273.2,288,255.3,288L255.3,288z M255.3,288"/>
	</g>
</g>
</svg>
