<?xml version="1.0" encoding="utf-8"?>
<!-- Generator: Adobe Illustrator 22.0.1, SVG Export Plug-In . SVG Version: 6.00 Build 0)  -->
<svg version="1.1" id="图层_1" xmlns="http://www.w3.org/2000/svg" xmlns:xlink="http://www.w3.org/1999/xlink" x="0px" y="0px"
	 viewBox="0 0 512 512" style="enable-background:new 0 0 512 512;" xml:space="preserve">
<style type="text/css">
	.st0{fill-rule:evenodd;clip-rule:evenodd;}
</style>
<g>
	<path class="st0" d="M476.6,186L274.3,64.9c-10-6-26.3-6-36.4,0L35.6,186c-10,6-10,15.8,0,21.8l202.3,121.1c10,6,26.3,6,36.4,0
		l167.4-100.2v146.3c0,5.5,4.5,10,10,10s10-4.5,10-10V216.7l15-9C486.7,201.7,486.7,192,476.6,186z"/>
</g>
<path class="st0" d="M407.1,310.4l-132.8,79.5c-10,6-26.3,6-36.4,0l-132.8-79.5v57.8l132.8,79.5c10,6,26.3,6,36.4,0l132.8-79.5
	V310.4z"/>
</svg>
