<?xml version="1.0" encoding="utf-8"?>
<!-- Generator: Adobe Illustrator 22.0.1, SVG Export Plug-In . SVG Version: 6.00 Build 0)  -->
<svg version="1.1" id="图层_1" xmlns="http://www.w3.org/2000/svg" xmlns:xlink="http://www.w3.org/1999/xlink" x="0px" y="0px"
	 viewBox="0 0 512 512" style="enable-background:new 0 0 512 512;" xml:space="preserve">
<style type="text/css">
	.st0{fill-rule:evenodd;clip-rule:evenodd;}
</style>
<path d="M353.4,19.7H158.6c-63,0-114.3,51.3-114.3,114.3v243.4c0,63,51.3,114.3,114.3,114.3h194.8c63,0,114.3-51.3,114.3-114.3
	V134.1C467.7,71,416.4,19.7,353.4,19.7z M353.4,451.8H158.6c-41,0-74.3-33.3-74.3-74.3V134.1c0-41,33.3-74.3,74.3-74.3h194.8
	c41,0,74.3,33.3,74.3,74.3v243.4C427.7,418.5,394.4,451.8,353.4,451.8z"/>
<g>
	<path class="st0" d="M395,184.3l-5.6-6c-6.2-6.6-16.6-7-23.2-0.8L240.1,295l-63.4-68c-6.2-6.6-16.6-7-23.2-0.8l-6,5.6
		c-6.6,6.2-7,16.6-0.8,23.2l80.2,86c6.2,6.6,16.6,7,23.2,0.8l144.1-134.3C400.8,201.3,401.2,191,395,184.3z"/>
</g>
</svg>
