<?xml version="1.0" encoding="utf-8"?>
<!-- Generator: Adobe Illustrator 22.0.1, SVG Export Plug-In . SVG Version: 6.00 Build 0)  -->
<svg version="1.1" id="图层_1" xmlns="http://www.w3.org/2000/svg" xmlns:xlink="http://www.w3.org/1999/xlink" x="0px" y="0px"
	 viewBox="0 0 512 512" style="enable-background:new 0 0 512 512;" xml:space="preserve">
<style type="text/css">
	.st0{fill-rule:evenodd;clip-rule:evenodd;}
</style>
<path d="M134.8,97.8h63.3v63.3h-63.3V97.8z M229.7,97.8h31.6v63.3h-31.6V97.8z M134.8,192.8h63.3V256h-63.3V192.8z M229.7,192.8
	h31.6V256h-31.6V192.8z M356.3,192.8h31.6V256h-31.6V192.8z M356.3,287.7h31.6V351h-31.6V287.7z M134.8,287.7h63.3V351h-63.3V287.7z
	 M229.7,287.7h31.6V351h-31.6V287.7z M451.2,445.9V129.5H324.6V34.5H71.5v411.3l-31.2-2.2v34.1h442.2v-34.1L451.2,445.9z
	 M103.2,445.9V66.2H293v379.7H103.2z M324.6,445.9V161.1h94.9v284.8H324.6z M324.6,445.9"/>
</svg>
