<?xml version="1.0" encoding="utf-8"?>
<!-- Generator: Adobe Illustrator 22.0.1, SVG Export Plug-In . SVG Version: 6.00 Build 0)  -->
<svg version="1.1" id="图层_1" xmlns="http://www.w3.org/2000/svg" xmlns:xlink="http://www.w3.org/1999/xlink" x="0px" y="0px"
	 viewBox="0 0 512 512" style="enable-background:new 0 0 512 512;" xml:space="preserve">
<style type="text/css">
	.st0{fill-rule:evenodd;clip-rule:evenodd;}
</style>
<path d="M406.5,30.4h-318c-9.1,0-16.6,7.5-16.6,16.7v400.3c0,9.2,7.4,16.6,16.6,16.6h147c-2.6-10-3.9-20.3-4-30.6
	c0-0.9,0.1-1.8,0.1-2.7H105.1V63.8H390v197c5.1-0.7,10.2-1,15.3-1c6.1,0,12,0.6,17.8,1.4V47.1C423.1,37.9,415.7,30.4,406.5,30.4
	L406.5,30.4z M289.7,275.6H145.8c-9.1,0-16.6,7.5-16.6,16.7c0,9.2,7.4,16.7,16.6,16.7h143.9c9.2,0,16.6-7.5,16.6-16.7
	C306.3,283,298.9,275.6,289.7,275.6L289.7,275.6z M129.3,376.9c0,9.2,7.4,16.7,16.6,16.7h92.5c2.5-12.3,1.3-22.7,7.5-33.4h-99.9
	C136.7,360.2,129.3,367.7,129.3,376.9L129.3,376.9z M129.3,376.9"/>
<path d="M441.7,337.7c-0.7-16.5-10.9-33.1-31.8-40.9c-1.1-0.3-2.2-0.7-3.3-1c-2.1-0.4-4.2-0.8-6.3-1.2c-6.2-0.7-12.5-0.2-18.5,1.5
	c-10.2,2.9-18.5,9.2-25.2,20.1c-4.9,8-4.3,16.1-5.4,23c-2.3,13.5-6.8,26.4-13.3,38.5l47.1,29.6l0.4,0.2c2.3-4,5.9-7.4,8.8-10.4
	c7.1-7.3,14.5-14.1,22.7-19.2l4.8-2.4c3.9-2.4,7.5-5.5,10.9-9.3C439.4,358.2,442.1,346.5,441.7,337.7L441.7,337.7z M410.9,373
	c-3.6-0.7-5.1-5.3-2.7-8.2c1.5-1.8,3.2-1.5,5.5-1.5C420.2,365.8,417.2,374.2,410.9,373L410.9,373z M421,363.7
	c-2.9-0.3-4.7-3.6-3-6.1c1.4-2.2,3.5-4,5-6.5c3.7-5.8,4-13.2,3.2-17.9c-0.3-2.1-1.1-4.1-1.7-6c-0.5-1.7-2.1-3.2-2.1-5.1
	c0.1-3.4,3.1-3.6,5.2-3.7c3.2,1.3,4.1,4.8,4.8,7.2c1.7,5.4,2.7,10.7,1.9,17.4c-0.4,1.9-0.9,3.8-1.3,5.6
	C431.8,354.5,424.9,364.2,421,363.7L421,363.7z M334.7,383.1c15.7,9.9,31.4,19.7,47.1,29.6c0,0,0,0.1,0,0.1
	c-2.7,3.5-4.4,8.2-6.3,13.1l11.4,7.2c8.3,5.6,15.5,8.9,18,17c0.8,2.5,1.5,5.3,1.4,8.2c-0.3,14.7-12.8,22.2-23.1,22.2l-5.3-0.6
	c-1.1-0.3-2-0.7-3.1-0.9c-1.4,2.2-4.5,2.8-7.1,2.2c-2.3-0.4-4.1-2.2-5.7-3.3l-11.3-7c-19.4-12.3-38.8-24.5-58.2-36.8
	c-2.9-1.8-5.9-3.7-8.8-5.5c-4.7-3.1-9.2-5.2-6.7-11.4c-7-5.2-10.6-20.1-2.9-29.9c3.1-4,7.1-6.9,11.4-8.1c3.3-1,6.8-1.3,10.7-0.8
	c4.3,0.6,8.7,3.1,11.8,5.2l17.3,10.8l4.1-4.3L334.7,383.1z M248.1,93.6"/>
<polygon points="285.8,174.1 295.8,225.5 249,202.2 203.3,227.6 210.9,175.8 172.7,140.2 224.2,131.5 246.3,84.1 270.5,130.5 
	322.4,136.8 "/>
</svg>
