<?xml version="1.0" encoding="utf-8"?>
<!-- Generator: Adobe Illustrator 22.0.1, SVG Export Plug-In . SVG Version: 6.00 Build 0)  -->
<svg version="1.1" id="图层_1" xmlns="http://www.w3.org/2000/svg" xmlns:xlink="http://www.w3.org/1999/xlink" x="0px" y="0px"
	 viewBox="0 0 512 512" style="enable-background:new 0 0 512 512;" xml:space="preserve">
<style type="text/css">
	.st0{fill-rule:evenodd;clip-rule:evenodd;}
</style>
<path d="M427.6,104.5c-84.9,0-134.8-45.4-157.2-68.3c-7.8-8-20.8-8.1-28.6-0.1c-46.6,47.4-123.3,65.7-160.4,68.1
	c-12.1,0.8-21.5,10.8-21.5,22.9v204.4C108.9,474.4,256,483.9,256,483.9c173-30.5,196.2-159.1,196.2-159.1V129.2
	C452.2,115.6,441.2,104.5,427.6,104.5z M353.8,215.9l-80.9,140c-3.6,6.2-10.2,9.5-17,9.3c-6.7,0.2-13.4-3-17-9.3l-80.9-140
	c-5.2-8.9-2.1-20.4,6.9-25.6h0c8.9-5.2,20.4-2.1,25.6,6.9L256,310.4l65.4-113.2c5.2-8.9,16.7-12,25.6-6.9
	C355.9,195.4,359,207,353.8,215.9z"/>
</svg>
