<?xml version="1.0" encoding="utf-8"?>
<!-- Generator: Adobe Illustrator 22.0.1, SVG Export Plug-In . SVG Version: 6.00 Build 0)  -->
<svg version="1.1" xmlns="http://www.w3.org/2000/svg" xmlns:xlink="http://www.w3.org/1999/xlink" x="0px" y="0px"
	 viewBox="0 0 512 512" style="enable-background:new 0 0 512 512;" xml:space="preserve">
<style type="text/css">
	.st0{opacity:0.5;}
	.st1{fill:#040000;}
</style>
<g id="尺寸参考线" class="st0">
</g>
<g id="图层_2">
	<path d="M141.1,350.6c0-7.5-6.1-13.5-13.5-13.5h-27c-7.5,0-13.5,6.1-13.5,13.5c0,7.5,6.1,13.5,13.5,13.5h27
		C135,364.2,141.1,358.1,141.1,350.6z M87.6,242.5c0,7.5,6.1,13.5,13.5,13.5h26.5c7.5,0,13.5-6.1,13.5-13.5
		c0-7.5-6.1-13.5-13.5-13.5h-26.5C93.6,229,87.6,235,87.6,242.5z M411.5,81.1l-27-0.8c0-7.5-6.1-13.5-13.5-13.5H128.1
		c-7.5,0-13.5,6.1-13.5,13.5v26.2h13.5c0,0,26.9,2.5,26.9,27c0,0,0.3,27.1-27.6,27.1l-12.8,0.8l0.3,53.2l12.6,0
		c0,0,27.8,0,27.8,28.7c0,0-2.6,26.2-27.9,26.2l-12.7,0l-0.2,53.2h13.5c0,0,27,0.8,27,27.9c0,0,0,27.9-27.9,27.9l-12.2-0.8l-0.2,27
		c0,0,15.5,40.6,39.2,40.6h258.6c0,0,12.7-2.5,12.7-12.7v-338C425,94.6,422.5,81.1,411.5,81.1z M181.6,161.4h175.8V329H181.6
		L181.6,161.4z M384.4,418.2H154.6c0,0-13.9-4.6-13.9-13.9l230.3-0.1c7.5,0,13.5-6.1,13.5-13.5V92.5l13.9,4.6v308.4
		C398.4,405.6,398.8,418.2,384.4,418.2z M100.5,147.8h27c7.5,0,13.5-6.1,13.5-13.5c0-7.5-6.1-13.5-13.5-13.5h-27
		c-7.5,0-13.5,6.1-13.5,13.5C87,141.8,93.1,147.8,100.5,147.8z M323.6,202.4H215.4c-3.7,0-6.8,5.6-6.8,12.5c0,6.9,3,12.4,6.8,12.4
		h108.2c3.7,0,6.8-5.6,6.8-12.4C330.4,208,327.3,202.4,323.6,202.4z M323.6,264.1H215.4c-3.7,0-6.8,5.6-6.8,12.4
		c0,6.9,3,12.5,6.8,12.5h108.2c3.7,0,6.8-5.6,6.8-12.5C330.4,269.7,327.3,264.1,323.6,264.1z"/>
</g>
</svg>
