<?xml version="1.0" encoding="utf-8"?>
<!-- Generator: Adobe Illustrator 22.0.1, SVG Export Plug-In . SVG Version: 6.00 Build 0)  -->
<svg version="1.1" id="图层_1" xmlns="http://www.w3.org/2000/svg" xmlns:xlink="http://www.w3.org/1999/xlink" x="0px" y="0px"
	 viewBox="0 0 512 512" style="enable-background:new 0 0 512 512;" xml:space="preserve">
<style type="text/css">
	.st0{fill-rule:evenodd;clip-rule:evenodd;}
</style>
<g>
	<g>
		<path d="M300.5,481.3h-89.9c-85.3,0-152.6,0-152.6-44.2v-8.8c0-82.9,68.5-150.3,152.6-150.3h89.9c84.1,0,152.6,67.4,152.6,150.3
			v8.8C453.1,481.3,382.4,481.3,300.5,481.3L300.5,481.3z M251.1,269.1c-66.8,0-121.1-53.6-121.1-119.4
			c0-65.8,54.3-119.4,121.1-119.4c66.8,0,121.1,53.5,121.1,119.4C372.2,215.5,317.9,269.1,251.1,269.1L251.1,269.1z M251.1,269.1"/>
	</g>
</g>
</svg>
