<?xml version="1.0" encoding="utf-8"?>
<!-- Generator: Adobe Illustrator 22.0.1, SVG Export Plug-In . SVG Version: 6.00 Build 0)  -->
<svg version="1.1" id="图层_1" xmlns="http://www.w3.org/2000/svg" xmlns:xlink="http://www.w3.org/1999/xlink" x="0px" y="0px"
	 viewBox="0 0 512 512" style="enable-background:new 0 0 512 512;" xml:space="preserve">
<style type="text/css">
	.st0{fill-rule:evenodd;clip-rule:evenodd;}
</style>
<g>
	<g>
		<path d="M432.8,329h-26.1v-77.4c0-5.6-4.4-10.1-10.1-10.1H266.1v-58.9h25.9c11.9,0,21.5-9.6,21.5-21.5V89
			c0-11.9-9.7-21.5-21.5-21.5h-72.4c-11.9,0-21.5,9.6-21.5,21.5v72.2c0,11.9,9.6,21.5,21.5,21.5h26.1v58.9H115.2
			c-5.6,0-10.1,4.4-10.1,10.1V329H79c-11.9,0-21.5,9.6-21.5,21.5v72.2c0,11.9,9.6,21.5,21.5,21.5h72.2c11.9,0,21.5-9.6,21.5-21.5
			v-72.2c0-11.9-9.6-21.5-21.5-21.5H125v-67.3h120.8L246,329h-26.3c-11.9,0-21.5,9.6-21.5,21.5v72.2c0,11.9,9.6,21.5,21.5,21.5h72.4
			c11.9,0,21.5-9.6,21.5-21.5v-72.2c0-11.9-9.7-21.5-21.5-21.5h-25.7l-0.2-67.3h120.4V329h-26.1c-11.9,0-21.5,9.6-21.5,21.5v72.2
			c0,11.9,9.6,21.5,21.5,21.5h72.4c11.9,0,21.5-9.6,21.5-21.5v-72.2C454.1,338.7,444.4,329,432.8,329L432.8,329z M432.8,329"/>
	</g>
</g>
</svg>
