<?xml version="1.0" encoding="utf-8"?>
<!-- Generator: Adobe Illustrator 22.0.1, SVG Export Plug-In . SVG Version: 6.00 Build 0)  -->
<svg version="1.1" id="图层_1" xmlns="http://www.w3.org/2000/svg" xmlns:xlink="http://www.w3.org/1999/xlink" x="0px" y="0px"
	 viewBox="0 0 512 512" style="enable-background:new 0 0 512 512;" xml:space="preserve">
<style type="text/css">
	.st0{fill-rule:evenodd;clip-rule:evenodd;}
</style>
<g>
	<path d="M452,123.2l-0.3-0.1h-0.5c-1.7-0.3-3.2-0.3-4.7-0.3c-15.6,0-28.7,9.3-34.1,24.2l-24,74.4c-3.4-0.9-6.9-1.3-10.5-1.3
		c-8,0-15.9,2.1-23.5,6.1L272.6,270c-5.9,3-11.2,7.3-15.9,12.7c-4.6-5.2-9.9-9.6-15.8-12.7l-82.2-43.9c-7.6-4.1-15.5-6.1-23.5-6.1
		c-3.6,0-7.1,0.4-10.5,1.3L100.9,147l0-0.1c-5.2-15-18.3-24.3-34.1-24.3c-1.5,0-3,0-4.7,0.3h-0.5l-0.3,0.1
		c-14.9,2.6-31.1,16.6-31.4,41.2v0.3l3.6,97.1c0,15.8,5.1,31.9,15,48c5.3,8.5,11.8,15.5,18,22.3l0.5,0.5l49.9,48.1
		c1,0.9,1.9,1.9,2.9,2.8c8,7.8,15.6,15.1,20.6,23.4l21.6,34.9c3.5,5.8,9.8,9.4,16.3,9.4c3.6,0,7.2-1,10.4-2.9
		c9.4-5.8,12-17.3,6.2-26.6l-22.3-36.5c-8-13-18.7-23.5-29.1-33.6L94,303.5c-13.8-13.8-21.9-30.1-22.4-44.7l-3.1-84.7l23.1,72.3
		L93,253c1.7,11,4.6,23,20,37.4c1.8,2.3,4.1,4.5,7.1,6.5l28.6,22.7c3.5,3,7.7,4.5,12.3,4.5c5.6,0,10.9-2.6,14.5-7.1
		c3.4-4.1,5.1-9.1,4.6-14.1c-0.5-4.9-3-9.4-7-12.7l-29.6-23.4c-4.3-3.3-6.6-6.2-7.9-8.2c1.1,0.2,2.6,0.7,3.9,1.4l81.9,43.6
		c8.8,5.4,14.1,20.5,13.9,31.5l0,0.1l1,48.3l0,0.5c0.3,3.9,1.9,7.5,4.6,10.5c2.9,3.5,7.1,6,11.5,7l2.7,0.6h1.4l2.7-0.6
		c4.4-0.9,8.6-3.5,11.5-7c2.6-2.9,4.2-6.7,4.6-10.5l0-0.2l1-48.6l0-0.1c0-11.1,5.3-26.3,13.9-31.6l81.4-43.5
		c1.8-0.8,3.2-1.2,4.1-1.4c-1.2,2-3.4,4.8-7.7,8.2l-29.5,23.4l-0.1,0.1c-4.1,3.4-6.5,8-6.9,12.9c-0.4,4.9,1.2,9.8,4.7,13.9
		c3.9,4.5,9.1,7.1,14.4,7.1c4.4,0,8.6-1.5,12.3-4.5l28.6-22.7c2.9-2,5.3-4.2,7.1-6.5c15.4-14.7,18.4-27,19.9-37.4l1.5-6.6l23.4-72.9
		l-3.2,85.4c-0.5,14.4-8.6,30.6-22.2,44.5L368.7,351c-10.2,9.5-20.8,20.1-29.4,33.7L317,421.1c-5.8,9.3-3,20.8,6.4,26.7l0.1,0
		c3.2,1.9,6.7,2.9,10.3,2.9c6.5,0,12.8-3.6,16.3-9.4l21.6-34.9c5-8.3,12.6-15.6,20.6-23.4c1-0.9,1.9-1.8,2.9-2.8l49.6-47.8l0.8-0.8
		c6.3-6.8,12.7-13.8,18.1-22.3c9.8-16,15-32.6,15-48l3.6-97l0-0.6C483.2,140.8,467.8,126,452,123.2z"/>
	<path d="M246.9,229.8L246.9,229.8c3.3,2,6.5,2.9,10.1,2.9c3.7,0,7.3-1,10.1-2.9c8.9-5.4,83.5-52.4,83.5-106.4
		C350.7,89,322.1,61,287,61c-10.7,0-20.9,2.6-30.3,7.6c-9.1-5-19.5-7.6-30.3-7.6c-35.1,0-63.6,28-63.6,62.4
		C163.3,177.6,238.4,224.6,246.9,229.8z M202.3,123.4c0-12.9,11-23.4,24.4-23.4c6.2,0,12.3,2.4,17,6.6c7.5,6.9,19.1,6.9,26.3,0
		c4.7-4.3,10.8-6.6,17-6.6c13.6,0,24.7,10.5,24.7,23.4c0,19.4-27.1,47-54.7,66.4C229.4,170.4,202.3,142.8,202.3,123.4z"/>
</g>
</svg>
