<?xml version="1.0" encoding="utf-8"?>
<!-- Generator: Adobe Illustrator 22.0.1, SVG Export Plug-In . SVG Version: 6.00 Build 0)  -->
<svg version="1.1" id="图层_1" xmlns="http://www.w3.org/2000/svg" xmlns:xlink="http://www.w3.org/1999/xlink" x="0px" y="0px"
	 viewBox="0 0 512 512" style="enable-background:new 0 0 512 512;" xml:space="preserve">
<style type="text/css">
	.st0{fill-rule:evenodd;clip-rule:evenodd;}
</style>
<g>
	<g>
		<path d="M284.6,369.6h9.4c-9.7-14.6-15-31.7-15.2-49.2c-0.7-48.2,37.7-87.8,85.9-88.6c11.3,0,22.5,2.4,32.9,6.8V49.5
			c0.1-10.3-8.2-18.8-18.5-18.9H72.3C62.1,30.8,53.9,39.2,54,49.5v412.1c-0.1,10.3,8.2,18.8,18.5,18.9h171.7
			c-2.5-5.8-3.8-12.1-3.8-18.5v-44.1c-0.5-25.4,19.1-46.6,44.4-48.3 M109.3,106.4c0-5.8,4.5-10.5,10.3-10.8h213.2
			c5.8,0.2,10.4,5,10.3,10.8c0,5.8-4.5,10.5-10.3,10.8H119.6C113.8,117,109.2,112.2,109.3,106.4 M119.6,182.2
			c-5.8-0.2-10.4-5-10.3-10.8c0-5.8,4.5-10.5,10.3-10.8h213.2c5.8,0.2,10.4,5,10.3,10.8c0,5.8-4.5,10.5-10.3,10.8H119.6z
			 M119.6,182.2"/>
	</g>
</g>
<path d="M442.2,396.1h-35.3l-2.4-2.4c-9.8-11.5-7.4-17.1,2.4-33l1.4-2.3c1.8-2.4,3.5-4.8,5-7.4l3.3-7.4c2.8-7.4,4.2-15.2,4.2-23
	c3.8-23.7-6.7-47.3-26.8-60.4c-20.1-13.1-46-13.1-66.1,0c-20.1,13.1-30.6,36.7-26.8,60.4c0,13.6,4.3,26.9,12.4,37.9l5.1,7.9
	c9.4,13.3,12.9,18.2-1.5,30.3h-37.3c-11.2,0-18.2,12.9-18.2,21.8v44.1c-0.1,10,7.8,18.2,17.7,18.5h165.5c9.6-0.7,17-8.8,16.8-18.5
	v-44.1c0.4-5.6-1.4-11.1-5.1-15.2C452.9,399,447.7,396.4,442.2,396.1"/>
</svg>
