<?xml version="1.0" encoding="utf-8"?>
<!-- Generator: Adobe Illustrator 22.0.1, SVG Export Plug-In . SVG Version: 6.00 Build 0)  -->
<svg version="1.1" xmlns="http://www.w3.org/2000/svg" xmlns:xlink="http://www.w3.org/1999/xlink" x="0px" y="0px"
	 viewBox="0 0 512 512" style="enable-background:new 0 0 512 512;" xml:space="preserve">
<style type="text/css">
	.st0{display:none;opacity:0.5;}
	.st1{display:inline;}
	.st2{fill:none;}
</style>
<g id="图层_1" class="st0">
</g>
<g id="图层_2">
	<g>
		<path d="M416.8,233.1c2.2-4.1,4.3-12.2,4.3-18.7c0-12.9-5.1-27.5-13.2-35.9l-0.2-1.2C406,125,371,75,326.9,55.6
			C307.3,47.4,285,40,257.3,40.4c-27,0.4-46.8,4.1-71.5,15.8c-39.9,19.1-80.1,74.8-80.1,119.1c-4.8,4.1-7.4,16.7-7.2,23
			c-4.1,5-5.4,15.8-5.4,22.5c0,4.3,0.2,8.4,1.9,12.4C69,261,49.8,296.8,49.8,344.6c0,8.8,2.2,16,5.5,23.9c1.4,0.5,0.7,2.4,2.6,2.4
			h0.2c13.9-1.4,26.3-14.6,31.6-26.8c0.5-1.2,1.2-4.8,2.9-4.8l1.2,0.7c3.6,17.2,26.8,58.8,43.3,62.6l0.5,0.7c0,0.7-0.2,0.7-0.5,1
			c-1.2,0.2-2.2,0.5-3.3,0.5c-8.6,0.5-15.8,3.2-21.5,6C102,417,84.4,423.7,88,436.6c8,28.4,70.3,32.3,88.5,32.3
			c20.6,0,53.9-4.3,68.5-20.3c7.7,0,15.1,0,21,0c17.1,14.4,53,17.2,82.2,17.2c22,0,58.6-2.6,72.2-23.2c1.9-2.6,1.4-5.5,2.6-8.1
			c-4.1-22.7-30-28.5-43.7-34.7c15.5-14.8,27.9-33.5,35.6-53.3l1.2-1c0.2,0,0.5,0,0.7,0.2c3.3,6.2,13.6,28.9,23,28.9
			c13.4,0,17.9-29.2,17.9-37.5c0-37.8-18.7-70.8-39.2-101.1C418.3,235.5,416.6,233.6,416.8,233.1z"/>
	</g>
</g>
</svg>
