<?xml version="1.0" encoding="utf-8"?>
<!-- Generator: Adobe Illustrator 22.0.1, SVG Export Plug-In . SVG Version: 6.00 Build 0)  -->
<svg version="1.1" xmlns="http://www.w3.org/2000/svg" xmlns:xlink="http://www.w3.org/1999/xlink" x="0px" y="0px"
	 viewBox="0 0 512 512" style="enable-background:new 0 0 512 512;" xml:space="preserve">
<style type="text/css">
	.st0{display:none;opacity:0.5;}
	.st1{display:inline;}
	.st2{fill:none;}
</style>
<g id="图层_1" class="st0">
</g>
<g id="图层_2">
	<path d="M482.5,228.8h-46c-12-78.4-74.3-140.5-152.8-152.3V29.5c0-6.4-5.2-11.5-11.5-11.5h-32.4c-6.4,0-11.5,5.2-11.5,11.5v47.1
		c-78,12.2-139.8,74.1-151.8,152.2H28.5c-6.4,0-11.5,5.2-11.5,11.5v32.4c0,6.4,5.2,11.5,11.5,11.5h47.9
		c12,78.1,73.8,140,151.8,152.2v47.1c0,6.4,5.2,11.5,11.5,11.5h32.4c6.4,0,11.5-5.2,11.5-11.5v-46.9
		c78.5-11.8,140.7-73.9,152.8-152.3h46c6.4,0,11.5-5.2,11.5-11.5v-32.4C494,233.9,488.8,228.8,482.5,228.8z M283.7,382.2v-54.4
		c0-6.4-5.2-11.5-11.5-11.5h-32.4c-6.4,0-11.5,5.2-11.5,11.5v54.2c-48.5-10.9-86.6-49.2-97.4-97.7h54.3c6.4,0,11.5-5.2,11.5-11.5
		v-32.4c0-6.4-5.2-11.5-11.5-11.5h-54.3c10.7-48.5,48.9-86.8,97.4-97.7v54.2c0,6.4,5.2,11.5,11.5,11.5h32.4
		c6.4,0,11.5-5.2,11.5-11.5v-54.4c48.9,10.6,87.5,49.1,98.3,97.9h-54.3c-6.4,0-11.5,5.2-11.5,11.5v32.4c0,6.4,5.2,11.5,11.5,11.5
		H382C371.2,333.1,332.6,371.6,283.7,382.2z"/>
</g>
</svg>
