<?xml version="1.0" encoding="utf-8"?>
<!-- Generator: Adobe Illustrator 22.0.1, SVG Export Plug-In . SVG Version: 6.00 Build 0)  -->
<svg version="1.1" xmlns="http://www.w3.org/2000/svg" xmlns:xlink="http://www.w3.org/1999/xlink" x="0px" y="0px"
	 viewBox="0 0 512 512" style="enable-background:new 0 0 512 512;" xml:space="preserve">
<style type="text/css">
	.st0{display:none;opacity:0.5;}
	.st1{display:inline;}
	.st2{fill:none;}
</style>
<g id="图层_1" class="st0">
</g>
<g id="图层_2">
	<g>
		<path d="M447.2,429.9H325.5c0,38.3-31.2,69.5-69.5,69.5s-69.5-31.2-69.5-69.5H64.8c-19,0-34.8-15.8-34.8-34.8
			c40.2-34,86.9-94.8,86.9-226c0-52.2,43.2-109.2,115.2-119.8c-1.4-3.3-2.2-6.8-2.2-10.6c0-14.4,11.7-26.1,26.1-26.1
			s26.1,11.7,26.1,26.1c0,3.8-0.8,7.3-2.2,10.6c72,10.6,115.2,67.6,115.2,119.8c0,131.2,46.7,192,86.9,226
			C482,414.2,466.2,429.9,447.2,429.9z M256,469.1c-21.5,0-39.1-17.7-39.1-39.1c0-2.4-1.9-4.3-4.3-4.3c-2.4,0-4.3,1.9-4.3,4.3
			c0,26.3,21.5,47.8,47.8,47.8c2.4,0,4.3-1.9,4.3-4.3S258.4,469.1,256,469.1z"/>
	</g>
</g>
</svg>
