<?xml version="1.0" encoding="utf-8"?>
<!-- Generator: Adobe Illustrator 22.0.1, SVG Export Plug-In . SVG Version: 6.00 Build 0)  -->
<svg version="1.1" xmlns="http://www.w3.org/2000/svg" xmlns:xlink="http://www.w3.org/1999/xlink" x="0px" y="0px"
	 viewBox="0 0 512 512" style="enable-background:new 0 0 512 512;" xml:space="preserve">
<style type="text/css">
	.st0{display:none;opacity:0.5;}
	.st1{display:inline;}
	.st2{fill:none;}
</style>
<g id="图层_1" class="st0">
</g>
<g id="图层_2">
	<g>
		<path d="M482,256c0,124.8-101.2,226-226,226S30,380.8,30,256S131.2,30,256,30S482,131.2,482,256z M95.9,256
			c0,88.3,71.8,160.1,160.1,160.1S416.1,344.3,416.1,256S344.3,95.9,256,95.9S95.9,167.7,95.9,256z M284.2,143c5,0,9.4,4.4,9.4,9.4
			V256h56.5c5.3,0,9.4,4.1,9.4,9.4c0,2.6-1.2,5-2.9,7.1l-93.9,93.9c-1.8,1.8-4.4,2.6-6.8,2.6c-2.4,0-5-0.9-6.8-2.6l-94.2-94.2
			c-1.8-1.8-2.6-4.4-2.6-6.8c0-5,4.4-9.4,9.4-9.4h56.5V152.4c0-5,4.4-9.4,9.4-9.4H284.2z"/>
	</g>
</g>
</svg>
