<?xml version="1.0" encoding="utf-8"?>
<!-- Generator: Adobe Illustrator 22.0.1, SVG Export Plug-In . SVG Version: 6.00 Build 0)  -->
<svg version="1.1" xmlns="http://www.w3.org/2000/svg" xmlns:xlink="http://www.w3.org/1999/xlink" x="0px" y="0px"
	 viewBox="0 0 512 512" style="enable-background:new 0 0 512 512;" xml:space="preserve">
<style type="text/css">
	.st0{display:none;opacity:0.5;}
	.st1{display:inline;}
	.st2{fill:none;}
</style>
<g id="图层_1" class="st0">
</g>
<g id="图层_2">
	<g>
		<path d="M506,408.1c0,24.4-19.9,44.3-44.3,44.3H50.3C25.9,452.4,6,432.5,6,408.1V105.3C6,80.9,25.9,61,50.3,61h411.4
			c24.4,0,44.3,19.9,44.3,44.3V408.1z M60.5,105.2c-4.5,0-8.4,3.9-8.4,8.4v286.2c0,4.5,3.9,8.4,8.4,8.4h391c4.5,0,8.4-3.9,8.4-8.4
			V113.6c0-4.5-3.9-8.4-8.4-8.4H60.5z M141.8,241.3c-28.2,0-51.1-22.9-51.1-51.1s22.9-51.1,51.1-51.1s51.1,22.9,51.1,51.1
			S170,241.3,141.8,241.3z M419.2,369.7H90.7v-33.5l74.6-74.6l37.3,37.3l119.4-119.4l97,97V369.7z"/>
	</g>
</g>
</svg>
