<?xml version="1.0" encoding="utf-8"?>
<!-- Generator: Adobe Illustrator 22.0.1, SVG Export Plug-In . SVG Version: 6.00 Build 0)  -->
<svg version="1.1" xmlns="http://www.w3.org/2000/svg" xmlns:xlink="http://www.w3.org/1999/xlink" x="0px" y="0px"
	 viewBox="0 0 512 512" style="enable-background:new 0 0 512 512;" xml:space="preserve">
<style type="text/css">
	.st0{display:none;opacity:0.5;}
	.st1{display:inline;}
	.st2{fill:none;}
</style>
<g id="图层_1" class="st0">
</g>
<g id="图层_2">
	<g>
		<path d="M480.4,85c0-47.9-36.4-64.1-78.8-64.1c-35.6,0-80.9,15.7-113.3,30.6c-3.9-0.3-7.9-0.3-11.8-0.3
			C178.4,51.3,93,119,71.1,214.8c28.3-31.9,71.7-75.4,111.8-92.7c-49.7,44.2-92.1,100.2-124.3,158.6c-7.6,13.9-24.3,44.8-28.5,59.9
			c-6.5,23.3-11.8,47.6-11.8,72c0,41.9,18.1,68.8,62,68.8c32.7,0,73.8-15.4,103.1-30.4c28.8,14.1,61,21.7,93.2,21.7
			c89,0,168.8-56.3,198.7-140.3H364.5c-17.5,29.6-50.3,46.3-84.3,46.3c-50.3,0-96.1-37.7-96.1-89.8h301.3c1.3-8.9,1.8-18.1,1.8-27.2
			c0-35.6-9.2-70.9-26.4-102.1C470.7,137.4,480.4,110.2,480.4,85z M99.6,465.1c-29.8,0-47.9-16.5-47.9-46.9
			c0-28.3,13.6-61.8,25.6-86.9c16.2,46.9,49.2,86.9,91.9,112C148.8,454.6,122.9,465.1,99.6,465.1z M183.6,231.6
			c1.8-50.5,46.1-86.9,95.3-86.9c48.9,0,93.4,36.4,95.3,86.9H183.6z M352.7,65.4c19.6-9.4,44.5-18.3,66.5-18.3
			c28.8,0,49.7,18.1,49.7,47.4c0,18.3-6.8,39.3-13.3,56.5C431.5,112.2,395.1,81.9,352.7,65.4z"/>
	</g>
</g>
</svg>
