<?xml version="1.0" encoding="utf-8"?>
<!-- Generator: Adobe Illustrator 22.0.1, SVG Export Plug-In . SVG Version: 6.00 Build 0)  -->
<svg version="1.1" xmlns="http://www.w3.org/2000/svg" xmlns:xlink="http://www.w3.org/1999/xlink" x="0px" y="0px"
	 viewBox="0 0 512 512" style="enable-background:new 0 0 512 512;" xml:space="preserve">
<style type="text/css">
	.st0{display:none;opacity:0.5;}
	.st1{display:inline;}
	.st2{fill:none;}
</style>
<g id="图层_1" class="st0">
</g>
<g id="图层_2">
	<g>
		<path d="M193,239.5h221V197c0-32.7-26.8-59.5-59.5-59.5H210V129c0-32.7-26.8-59.5-59.5-59.5h-85C32.8,69.5,6,96.4,6,129v255
			c0,2.1,0.3,4.5,0.3,6.6l1.3-1.6l89.5-105.2C118.6,258.4,159.8,239.5,193,239.5z"/>
		<path d="M482,273.5H193c-23.4,0-54.7,14.3-70.1,32.4L33.6,411.1c-4.3,4.8-8.2,11.2-8.2,17.5c0,12,13.5,14.9,23.1,14.9h289
			c23.4,0,54.7-14.3,70.1-32.4l89.3-105.2c4.3-4.8,8.2-11.2,8.2-17.5C505.1,276.5,491.6,273.5,482,273.5z"/>
	</g>
</g>
</svg>
