<?xml version="1.0" encoding="utf-8"?>
<!-- Generator: Adobe Illustrator 22.0.1, SVG Export Plug-In . SVG Version: 6.00 Build 0)  -->
<svg version="1.1" xmlns="http://www.w3.org/2000/svg" xmlns:xlink="http://www.w3.org/1999/xlink" x="0px" y="0px"
	 viewBox="0 0 512 512" style="enable-background:new 0 0 512 512;" xml:space="preserve">
<style type="text/css">
	.st0{display:none;opacity:0.5;}
	.st1{display:inline;}
	.st2{fill:none;}
</style>
<g id="图层_1" class="st0">
</g>
<g id="图层_2">
	<g>
		<circle cx="255.7" cy="255.5" r="75.9"/>
		<path d="M338.9,181.1c34.4,40.2,34.9,98.3,6,142.8L243.1,480.5c42.2,2.3,85.7-7,125.2-29.9c97.5-56.3,137-174.5,97.5-276
			L338.9,181.1z"/>
		<path d="M270.3,144.2l186.5,9.8c-19.1-37.7-49-70.6-88.5-93.5C332.6,39.8,293.4,30,254.9,30.3C188.6,30.5,123.7,60.2,80.5,114
			l69.4,106.6C167.2,170.8,217.5,141.1,270.3,144.2z"/>
		<path d="M151.9,298.8L67.2,132.1C44,167.5,30.5,210,30.5,255.5c0,112.6,82.5,205.9,190.3,222.5l57.8-113.4
			C226.3,374.4,175.7,345.8,151.9,298.8z"/>
	</g>
</g>
</svg>
