<?xml version="1.0" encoding="utf-8"?>
<!-- Generator: Adobe Illustrator 22.0.1, SVG Export Plug-In . SVG Version: 6.00 Build 0)  -->
<svg version="1.1" xmlns="http://www.w3.org/2000/svg" xmlns:xlink="http://www.w3.org/1999/xlink" x="0px" y="0px"
	 viewBox="0 0 512 512" style="enable-background:new 0 0 512 512;" xml:space="preserve">
<style type="text/css">
	.st0{display:none;opacity:0.5;}
	.st1{display:inline;}
	.st2{fill:none;}
</style>
<g id="图层_1" class="st0">
</g>
<g id="图层_2">
	<g>
		<polygon points="166.1,205.7 255.8,481.4 345.4,205.7 		"/>
		<path d="M112.3,39.5c-3-8.4-14.9-8.4-17.9,0L40.6,205.7h125.5L112.3,39.5z"/>
		<path d="M13.2,289.4c-2.4,7.6,0.3,16,6.8,20.9l235.8,171.1L40.6,205.7L13.2,289.4z"/>
		<path d="M417.1,39.5c-3-8.4-14.9-8.4-17.9,0l-53.8,166.3h125.5L417.1,39.5z"/>
		<path d="M498.3,289.4l-27.4-83.7L255.8,481.4l235.8-171.1C498.1,305.4,500.8,297,498.3,289.4z"/>
	</g>
</g>
</svg>
