<?xml version="1.0" encoding="utf-8"?>
<!-- Generator: Adobe Illustrator 22.0.1, SVG Export Plug-In . SVG Version: 6.00 Build 0)  -->
<svg version="1.1" xmlns="http://www.w3.org/2000/svg" xmlns:xlink="http://www.w3.org/1999/xlink" x="0px" y="0px"
	 viewBox="0 0 512 512" style="enable-background:new 0 0 512 512;" xml:space="preserve">
<style type="text/css">
	.st0{display:none;opacity:0.5;}
	.st1{display:inline;}
	.st2{fill:none;}
</style>
<g id="图层_1" class="st0">
</g>
<g id="图层_2">
	<g>
		<path d="M256,482C131.2,482,30,380.8,30,256S131.2,30,256,30s226,101.2,226,226S380.8,482,256,482z M256,82.9
			c-95.4,0-173.1,77.6-173.1,173.1c0,95.5,77.6,173.1,173.1,173.1S429.1,351.5,429.1,256C429.1,160.6,351.4,82.9,256,82.9z
			 M284.7,281.8c0,6.7-5.2,11.9-11.9,11.9H153.9c-6.7,0-11.9-5.2-11.9-11.9V258c0-6.7,5.2-11.9,11.9-11.9h83.3V115.2
			c0-6.7,5.2-11.9,11.9-11.9h23.8c6.7,0,11.9,5.2,11.9,11.9V281.8z"/>
	</g>
</g>
</svg>
