<?xml version="1.0" encoding="utf-8"?>
<!-- Generator: Adobe Illustrator 22.0.1, SVG Export Plug-In . SVG Version: 6.00 Build 0)  -->
<svg version="1.1" xmlns="http://www.w3.org/2000/svg" xmlns:xlink="http://www.w3.org/1999/xlink" x="0px" y="0px"
	 viewBox="0 0 512 512" style="enable-background:new 0 0 512 512;" xml:space="preserve">
<style type="text/css">
	.st0{display:none;opacity:0.5;}
	.st1{display:inline;}
	.st2{fill:none;}
</style>
<g id="图层_1" class="st0">
</g>
<g id="图层_2">
	<g>
		<path d="M75.9,290.2c-18.3,0-32.9-14.7-32.9-32.9s14.7-32.9,32.9-32.9s32.9,14.7,32.9,32.9S94.2,290.2,75.9,290.2z M128.9,170.3
			c-22.6,0-41.2-18.5-41.2-41.2c0-22.6,18.5-41.2,41.2-41.2c22.6,0,41.2,18.5,41.2,41.2C170.1,151.8,151.5,170.3,128.9,170.3z
			 M128.9,418.2c-18,0-32.9-14.9-32.9-32.9c0-18.3,14.9-32.9,32.9-32.9c18.3,0,32.9,14.7,32.9,32.9
			C161.8,403.3,147.2,418.2,128.9,418.2z M257,125.5c-27.3,0-49.4-22.1-49.4-49.4s22.1-49.4,49.4-49.4s49.4,22.1,49.4,49.4
			S284.3,125.5,257,125.5z M257,471.2c-18.3,0-32.9-14.7-32.9-32.9s14.7-32.9,32.9-32.9s32.9,14.7,32.9,32.9S275.3,471.2,257,471.2z
			 M385.1,186.8c-31.9,0-57.6-25.7-57.6-57.6c0-31.6,25.7-57.6,57.6-57.6c31.6,0,57.6,26,57.6,57.6
			C442.7,161,416.7,186.8,385.1,186.8z M385.1,418.2c-18.3,0-32.9-14.9-32.9-32.9c0-18.3,14.7-32.9,32.9-32.9
			c18,0,32.9,14.7,32.9,32.9C418,403.3,403.1,418.2,385.1,418.2z M438.1,290.2c-18.3,0-32.9-14.7-32.9-32.9s14.7-32.9,32.9-32.9
			S471,239,471,257.2S456.3,290.2,438.1,290.2z"/>
	</g>
</g>
</svg>
