<?xml version="1.0" encoding="utf-8"?>
<!-- Generator: Adobe Illustrator 22.0.1, SVG Export Plug-In . SVG Version: 6.00 Build 0)  -->
<svg version="1.1" xmlns="http://www.w3.org/2000/svg" xmlns:xlink="http://www.w3.org/1999/xlink" x="0px" y="0px"
	 viewBox="0 0 512 512" style="enable-background:new 0 0 512 512;" xml:space="preserve">
<style type="text/css">
	.st0{display:none;opacity:0.5;}
	.st1{display:inline;}
	.st2{fill:none;}
</style>
<g id="图层_1" class="st0">
</g>
<g id="图层_2">
	<g>
		<path d="M465,239.5h-51V197c0-32.7-26.8-59.5-59.5-59.5H210V129c0-32.7-26.8-59.5-59.5-59.5h-85C32.8,69.5,6,96.4,6,129v255
			c0,32.7,26.8,59.5,59.5,59.5h289c23.9,0,52.9-13.8,68-32.4l78.4-96.4c7.2-9,12.2-20.2,12.2-31.9c0-6.4-1.3-12.5-4-18.1
			C501.1,247.8,483.1,239.5,465,239.5z M40,129c0-14.1,11.4-25.5,25.5-25.5h85c14.1,0,25.5,11.4,25.5,25.5v17
			c0,14.1,11.4,25.5,25.5,25.5h153c14.1,0,25.5,11.4,25.5,25.5v42.5H176c-24.2,0-52.6,13.5-68,32.4l-68,83.7V129z M474.3,293.2
			l-78.1,96.4c-9,11.2-27.6,19.9-41.7,19.9h-289c-5.8,0-14.1-1.9-14.1-9.3c0-4,2.4-7.4,4.8-10.6l78.1-96.4
			c9-10.9,27.6-19.7,41.7-19.7h289c5.8,0,14.1,1.9,14.1,9.3C479.1,286.8,476.7,290.3,474.3,293.2z"/>
	</g>
</g>
</svg>
