<?xml version="1.0" encoding="utf-8"?>
<!-- Generator: Adobe Illustrator 22.0.1, SVG Export Plug-In . SVG Version: 6.00 Build 0)  -->
<svg version="1.1" xmlns="http://www.w3.org/2000/svg" xmlns:xlink="http://www.w3.org/1999/xlink" x="0px" y="0px"
	 viewBox="0 0 512 512" style="enable-background:new 0 0 512 512;" xml:space="preserve">
<style type="text/css">
	.st0{display:none;opacity:0.5;}
	.st1{display:inline;}
	.st2{fill:none;}
</style>
<g id="图层_1" class="st0">
</g>
<g id="图层_2">
	<g>
		<path d="M482,125.4c0,10.3-8.5,18.8-18.8,18.8H48.8c-10.3,0-18.8-8.5-18.8-18.8V87.7c0-10.3,8.5-18.8,18.8-18.8h414.3
			c10.3,0,18.8,8.5,18.8,18.8V125.4z M482,276c0,10.3-8.5,18.8-18.8,18.8H48.8c-10.3,0-18.8-8.5-18.8-18.8v-37.7
			c0-10.3,8.5-18.8,18.8-18.8h414.3c10.3,0,18.8,8.5,18.8,18.8V276z M482,426.7c0,10.3-8.5,18.8-18.8,18.8H48.8
			c-10.3,0-18.8-8.5-18.8-18.8V389c0-10.3,8.5-18.8,18.8-18.8h414.3c10.3,0,18.8,8.5,18.8,18.8V426.7z"/>
	</g>
</g>
</svg>
