<?xml version="1.0" encoding="utf-8"?>
<!-- Generator: Adobe Illustrator 22.0.1, SVG Export Plug-In . SVG Version: 6.00 Build 0)  -->
<svg version="1.1" xmlns="http://www.w3.org/2000/svg" xmlns:xlink="http://www.w3.org/1999/xlink" x="0px" y="0px"
	 viewBox="0 0 512 512" style="enable-background:new 0 0 512 512;" xml:space="preserve">
<style type="text/css">
	.st0{display:none;opacity:0.5;}
	.st1{display:inline;}
	.st2{fill:none;}
</style>
<g id="图层_1" class="st0">
</g>
<g id="图层_2">
	<g>
		<path d="M355.6,193.3c-84.2,0-150.4,57.6-150.4,128.4s66.2,128.4,150.4,128.4c17.6,0,35.4-4.6,53.2-9l48.6,26.6L444,423.6
			c35.6-26.6,62-62,62-101.8C506,251,435.2,193.3,355.6,193.3z M306.8,299.5c-8.8,0-17.6-8.8-17.6-17.8c0-8.8,8.8-17.6,17.6-17.6
			c13.4,0,22.2,8.8,22.2,17.6C329,290.8,320.2,299.5,306.8,299.5z M404.2,299.5c-8.8,0-17.6-8.8-17.6-17.8c0-8.8,8.8-17.6,17.6-17.6
			c13.2,0,22.2,8.8,22.2,17.6C426.4,290.8,417.4,299.5,404.2,299.5z"/>
		<path d="M344.4,183.8c5.9,0,11.5,0.2,17.1,1C346.3,113.5,269.9,60.5,183,60.5C85.6,60.5,6,126.7,6,210.9
			c0,48.6,26.6,88.6,70.8,119.6l-17.6,53.2l61.8-31c22.2,4.4,39.8,8.8,62,8.8c5.6,0,11-0.2,16.6-0.7c-3.7-11.7-5.6-24.2-5.6-37.1
			C194,246.6,260.4,183.8,344.4,183.8z M249.4,135.7c13.2,0,22,8.8,22,22.2c0,13.2-8.8,22-22,22c-13.4,0-26.6-8.8-26.6-22
			C222.8,144.5,236,135.7,249.4,135.7z M125.4,179.9c-13.2,0-26.6-8.8-26.6-22c0-13.4,13.4-22.2,26.6-22.2
			c13.4,0,22.2,8.8,22.2,22.2C147.6,171.1,138.8,179.9,125.4,179.9z"/>
	</g>
</g>
</svg>
