<?xml version="1.0" encoding="utf-8"?>
<!-- Generator: Adobe Illustrator 22.0.1, SVG Export Plug-In . SVG Version: 6.00 Build 0)  -->
<svg version="1.1" xmlns="http://www.w3.org/2000/svg" xmlns:xlink="http://www.w3.org/1999/xlink" x="0px" y="0px"
	 viewBox="0 0 512 512" style="enable-background:new 0 0 512 512;" xml:space="preserve">
<style type="text/css">
	.st0{display:none;opacity:0.5;}
	.st1{display:inline;}
	.st2{fill:none;}
</style>
<g id="图层_1" class="st0">
</g>
<g id="图层_2">
	<g>
		<path d="M452,380.1c0,8.1-5.2,14.1-12.8,16.2c-28,8.4-59.4,13.6-88.4,13.6c-39.2,0-72.4-15.4-115.8-15.4
			c-32.2,0-65.4,5.2-96.8,12.6v88.4H96.3V137.7c-22-8.6-36.3-30.1-36.3-53.6c0-31.6,25.6-57.3,57.3-57.3s57.3,25.6,57.3,57.3
			c0,23.5-14.4,45-36.3,53.6v17.8c29.3-6.8,59.6-11.5,89.7-11.5c17.3,0,34.5,1.3,51.8,3.9c22.5,3.4,45.2,11.2,68.3,11.2
			c14.4,0,29-1.8,43.1-4.7c10.7-2.1,35.3-10.5,44.2-10.5c9.2,0,16.7,7.6,16.7,16.7V380.1z"/>
	</g>
</g>
</svg>
