<?xml version="1.0" encoding="utf-8"?>
<!-- Generator: Adobe Illustrator 22.0.1, SVG Export Plug-In . SVG Version: 6.00 Build 0)  -->
<svg version="1.1" xmlns="http://www.w3.org/2000/svg" xmlns:xlink="http://www.w3.org/1999/xlink" x="0px" y="0px"
	 viewBox="0 0 512 512" style="enable-background:new 0 0 512 512;" xml:space="preserve">
<style type="text/css">
	.st0{display:none;opacity:0.5;}
	.st1{display:inline;}
	.st2{fill:none;}
</style>
<g id="图层_1" class="st0">
</g>
<g id="图层_2">
	<g>
		<path d="M103.2,33C82.1,33,65,50.2,65,71.2c0,12.6,6.4,24.4,16.9,31.5v363.4c0,7.2,5.7,12.9,12.9,12.9h16.9
			c7.2,0,12.9-5.7,12.9-12.9V102.7c10.5-7.1,16.9-18.9,16.9-31.5C141.5,50.2,124.3,33,103.2,33z"/>
		<path d="M446.4,98.4l-0.1-0.1c-6.1-3.6-13.4-3.8-19.7-0.6l-0.2,0.1c-1.5,0.9-4,2.3-7.5,4.2l-0.2,0.1c-12.3,7.5-45,27.6-73.7,27.6
			c-7.6,0-14.2-1.4-19.8-4.3c-30.3-15.2-63.4-30-104.7-30c-52.6,0-109.1,32-125.2,41.8l-0.1,0.1c-5.9,3.8-9.6,10.5-9.6,17.4v237.6
			c0,7.3,3.7,13.9,9.9,17.7l0.3,0.2c3.2,1.7,6.7,2.5,10,2.5c3.7,0,7.4-1,10.5-3c28.1-17.5,76.7-36.1,111.5-36.1
			c29.3,0,48.4,9.9,72.6,22.4l6.9,3.5c12.1,6.2,25.8,9.3,40.9,9.3c38.2,0,75.8-20.5,91.8-29.3l1.1-0.6c1.6-0.9,3-1.7,3.9-2.1
			l0.1-0.1c6.6-3.5,10.9-10.6,10.9-18.1V115.7C456,108.8,452.3,102.2,446.4,98.4z M415.6,150.5v196.1c-26.9,14.4-49,21.4-67.5,21.4
			c-8.5,0-16.2-1.7-22.7-5l-8.4-4.3c-26.3-13.4-51.1-26-89.3-26c-28,0-65.6,9.6-101.9,26V166.3c34.1-18.9,69.2-30.2,94.5-30.2
			c33.4,0,61.2,12.7,86.8,25.7c10.9,5.7,23.6,8.6,37.8,8.6C366.2,170.4,389.9,163.7,415.6,150.5z"/>
	</g>
</g>
</svg>
