<?xml version="1.0" encoding="utf-8"?>
<!-- Generator: Adobe Illustrator 22.0.1, SVG Export Plug-In . SVG Version: 6.00 Build 0)  -->
<svg version="1.1" xmlns="http://www.w3.org/2000/svg" xmlns:xlink="http://www.w3.org/1999/xlink" x="0px" y="0px"
	 viewBox="0 0 512 512" style="enable-background:new 0 0 512 512;" xml:space="preserve">
<style type="text/css">
	.st0{display:none;opacity:0.5;}
	.st1{display:inline;}
	.st2{fill:none;}
</style>
<g id="图层_1" class="st0">
</g>
<g id="图层_2">
	<g>
		<path d="M314.8,100.6c12.7-12.7,22-26.5,28-41.6c5.7-14.8,8.7-28.6,8.7-41c0-2.1-0.3-3.9-0.3-6c-0.3-1.8-0.9-3.9-1.5-6.6
			c-35,8.1-60.3,22.9-75.4,44.6c-15.1,21.7-22.9,47.6-23.5,77.5c14.2-1.2,24.4-3,31.4-5.1C293.1,118.7,304,111.5,314.8,100.6z"/>
		<path d="M417.3,333.7c-13.9-19.9-20.8-42.5-20.8-67.2c0-22.9,6.6-43.7,19.6-62.4c7.2-10.6,18.7-22.3,34.4-35.6
			c-10.3-12.7-20.8-22.9-31.4-30.2c-18.7-13-40.1-19.6-64.2-19.6c-14.8,0-32.3,3.6-52.2,10.3c-19.9,6.9-34.4,10.3-43.1,10.3
			c-6.9,0-20.8-3-41.6-9c-21.1-6-38.6-9-53.4-9c-34.7,0-63,14.5-85.6,43.4C56.4,193.8,45,231.2,45,277.3C45,326.8,60,377.1,89.3,429
			c29.9,51.9,59.7,78.1,90.8,78.1c10,0,23.2-3.3,39.8-10.3c16.3-6.6,30.8-10,42.8-10c12.4,0,27.7,3,45.5,9.6
			c18.1,6.3,32,9.6,42.2,9.6c25.6,0,51.6-19.6,77.5-59.1c17.5-26.2,29.5-51.6,37.1-75.4C447.2,366.3,431.2,353.6,417.3,333.7z"/>
	</g>
</g>
</svg>
