<?xml version="1.0" encoding="utf-8"?>
<!-- Generator: Adobe Illustrator 22.0.1, SVG Export Plug-In . SVG Version: 6.00 Build 0)  -->
<svg version="1.1" xmlns="http://www.w3.org/2000/svg" xmlns:xlink="http://www.w3.org/1999/xlink" x="0px" y="0px"
	 viewBox="0 0 512 512" style="enable-background:new 0 0 512 512;" xml:space="preserve">
<style type="text/css">
	.st0{display:none;opacity:0.5;}
	.st1{display:inline;}
	.st2{fill:none;}
</style>
<g id="图层_1" class="st0">
</g>
<g id="图层_2">
	<g>
		<path class="st2" d="M141.8,139.2c28.2,0,51.1,22.9,51.1,51.1c0,28.2-22.9,51.1-51.1,51.1c-28.2,0-51.1-22.9-51.1-51.1
			C90.7,162.1,113.6,139.2,141.8,139.2z"/>
		<ellipse transform="matrix(0.9239 -0.3827 0.3827 0.9239 -62.0127 68.7426)" cx="141.8" cy="190.3" rx="51.1" ry="51.1"/>
		<polygon points="165.4,261.6 90.7,336.3 90.7,369.7 229.8,369.7 263.4,315.8 238.1,263.5 202.7,299 		"/>
		<polygon points="315,369.7 419.2,369.7 419.2,276.6 322.1,179.5 284.1,217.6 344.1,315.8 		"/>
		<path d="M461.7,61H328.8l-22.2,44.2h145c4.5,0,8.4,3.9,8.4,8.4v286.2c0,4.5-3.9,8.4-8.4,8.4H294.2l-23.9,44.2h191.3
			c24.4,0,44.3-19.9,44.3-44.3V105.3C506,80.9,486.1,61,461.7,61z"/>
		<path d="M60.5,408.2c-4.5,0-8.4-3.9-8.4-8.4V113.6c0-4.5,3.9-8.4,8.4-8.4h188.1L274.2,61H50.3C25.9,61,6,80.9,6,105.3v302.8
			c0,24.4,19.9,44.3,44.3,44.3h127.8l27.6-44.2H60.5z"/>
	</g>
</g>
</svg>
