<?xml version="1.0" encoding="utf-8"?>
<!-- Generator: Adobe Illustrator 22.0.1, SVG Export Plug-In . SVG Version: 6.00 Build 0)  -->
<svg version="1.1" xmlns="http://www.w3.org/2000/svg" xmlns:xlink="http://www.w3.org/1999/xlink" x="0px" y="0px"
	 viewBox="0 0 512 512" style="enable-background:new 0 0 512 512;" xml:space="preserve">
<style type="text/css">
	.st0{display:none;opacity:0.5;}
	.st1{display:inline;}
	.st2{fill:none;}
</style>
<g id="图层_1" class="st0">
</g>
<g id="图层_2">
	<g>
		<path d="M353.3,46.2c-9.3-9.3-28-17.1-41.3-17.1H86.1c-13.4,0-24.2,10.8-24.2,24.2v403.2c0,13.4,10.8,24.2,24.2,24.2h338.7
			c13.4,0,24.2-10.8,24.2-24.2V166.2c0-13.4-7.8-32-17.1-41.3L353.3,46.2z M320,63.4c4.3,1.5,8.6,3.8,10.3,5.5l78.9,78.9
			c1.8,1.8,4,6,5.5,10.3H320V63.4z M416.8,448.5H94.2V61.4h193.6v104.8c0,13.4,10.8,24.2,24.2,24.2h104.8V448.5z"/>
	</g>
</g>
</svg>
