<?xml version="1.0" encoding="utf-8"?>
<!-- Generator: Adobe Illustrator 22.0.1, SVG Export Plug-In . SVG Version: 6.00 Build 0)  -->
<svg version="1.1" xmlns="http://www.w3.org/2000/svg" xmlns:xlink="http://www.w3.org/1999/xlink" x="0px" y="0px"
	 viewBox="0 0 512 512" style="enable-background:new 0 0 512 512;" xml:space="preserve">
<style type="text/css">
	.st0{display:none;opacity:0.5;}
	.st1{display:inline;}
	.st2{fill:none;}
</style>
<g id="图层_1" class="st0">
</g>
<g id="图层_2">
	<g>
		<path d="M346.2,55.7c-10.3,2.2-17,12.3-14.8,22.6c2.2,10.3,12.5,17,22.8,14.8c31.7-6.7,66,3.1,89.4,29
			c23.4,25.6,29.5,61,19.5,91.9c-3.1,10,2.5,20.6,12.5,23.9c10,3.3,20.6-2.2,23.9-12.3c13.9-43.4,5.3-93-27.6-129.2
			C439.2,59.9,391,46.2,346.2,55.7z"/>
		<path d="M224.8,272.6c-39.3-10-83.5,9.5-100.8,44c-17.3,35.4-0.6,74.6,39.3,87.4c41.2,13.4,89.7-7.2,106.4-45.1
			C286.3,321.6,265.7,283.2,224.8,272.6z M195,362.8c-8.1,12.8-25.3,18.4-38.1,12.5c-12.5-5.8-16.4-20.6-8.4-33.1
			c7.8-12.3,24.5-17.8,37-12.5C198.6,335.3,202.8,350,195,362.8z M221.1,329.1c-2.8,5-9.2,7.2-14.2,5.3c-5-2.2-6.4-7.5-3.6-12.5
			c2.8-4.7,8.9-7,13.9-5.3C222.2,318.6,223.9,324.1,221.1,329.1z"/>
		<path d="M381.8,247.3c-7-2.2-11.7-3.6-8.1-12.8c7.8-20,8.6-37.3,0-49.6c-16.2-23.1-60.4-22-111.1-0.6c0-0.3-15.9,7-12-5.8
			c7.8-25.1,6.7-46.2-5.6-58.2c-27.6-27.6-100.8,0.8-163.7,63.8C34.3,231.1,7,281,7,324.1c0,82.7,105.8,132.8,209.4,132.8
			c135.6,0,225.8-78.8,225.8-141.5C442.2,277.6,410.5,256.2,381.8,247.3z M216.7,427.4c-82.7,8.1-154-29.2-159.3-83.5
			c-5.3-54.3,57.1-104.7,139.8-113.1c82.7-8.1,154,29.2,159.3,83.5C361.8,368.7,299.4,419.1,216.7,427.4z"/>
		<path d="M414.4,215.2c8.6,2.8,17.8-1.9,20.6-10.6c7-21.2,2.5-45.4-13.4-62.9c-15.9-17.8-39.5-24.5-61.3-19.8
			c-8.9,1.9-14.5,10.6-12.5,19.5c1.7,8.9,10.6,14.5,19.5,12.5c10.6-2.2,22,1.1,29.8,9.7s10,20.3,6.7,30.9
			C401,203.3,405.8,212.5,414.4,215.2z"/>
	</g>
</g>
</svg>
