<?xml version="1.0" encoding="utf-8"?>
<!-- Generator: Adobe Illustrator 22.0.1, SVG Export Plug-In . SVG Version: 6.00 Build 0)  -->
<svg version="1.1" xmlns="http://www.w3.org/2000/svg" xmlns:xlink="http://www.w3.org/1999/xlink" x="0px" y="0px"
	 viewBox="0 0 512 512" style="enable-background:new 0 0 512 512;" xml:space="preserve">
<style type="text/css">
	.st0{display:none;opacity:0.5;}
	.st1{display:inline;}
	.st2{fill:none;}
</style>
<g id="图层_1" class="st0">
</g>
<g id="图层_2">
	<g>
		<path d="M255.8,481C131.8,481,31.1,380.4,31.1,256.3S131.8,31.6,255.8,31.6s224.7,100.6,224.7,224.7S379.9,481,255.8,481z
			 M330.7,349.9c0-5.3-4.1-9.4-9.4-9.4h-28.1V190.8c0-5.3-4.1-9.4-9.4-9.4h-93.6c-5.3,0-9.4,4.1-9.4,9.4v46.8c0,5.3,4.1,9.4,9.4,9.4
			h28.1v93.6h-28.1c-5.3,0-9.4,4.1-9.4,9.4v46.8c0,5.3,4.1,9.4,9.4,9.4h131.1c5.3,0,9.4-4.1,9.4-9.4V349.9z M293.3,87.8
			c0-5.3-4.1-9.4-9.4-9.4h-56.2c-5.3,0-9.4,4.1-9.4,9.4v46.8c0,5.3,4.1,9.4,9.4,9.4h56.2c5.3,0,9.4-4.1,9.4-9.4V87.8z"/>
	</g>
</g>
</svg>
