<?xml version="1.0" encoding="utf-8"?>
<!-- Generator: Adobe Illustrator 22.0.1, SVG Export Plug-In . SVG Version: 6.00 Build 0)  -->
<svg version="1.1" xmlns="http://www.w3.org/2000/svg" xmlns:xlink="http://www.w3.org/1999/xlink" x="0px" y="0px"
	 viewBox="0 0 512 512" style="enable-background:new 0 0 512 512;" xml:space="preserve">
<style type="text/css">
	.st0{display:none;opacity:0.5;}
	.st1{display:inline;}
	.st2{fill:none;}
</style>
<g id="图层_1" class="st0">
</g>
<g id="图层_2">
	<g>
		<path d="M482,386.4c0,4.6-4.1,8.7-8.7,8.7h-60.8v43.5c0,14.4-11.7,26.1-26.1,26.1H125.6c-14.4,0-26.1-11.7-26.1-26.1v-43.5H38.7
			c-4.6,0-8.7-4.1-8.7-8.7v-113c0-28.5,23.6-52.2,52.2-52.2h17.4V73.5c0-14.4,11.7-26.1,26.1-26.1h182.5c14.4,0,34.2,8.1,44.5,18.5
			l41.3,41.3c10.3,10.3,18.5,30.2,18.5,44.5v69.5h17.4c28.5,0,52.2,23.6,52.2,52.2V386.4z M377.7,256V151.7h-43.5
			c-14.4,0-26.1-11.7-26.1-26.1V82.2H134.3V256H377.7z M377.7,429.8v-69.5H134.3v69.5H377.7z M429.8,256c-9.5,0-17.4,7.9-17.4,17.4
			s7.9,17.4,17.4,17.4c9.5,0,17.4-7.9,17.4-17.4S439.4,256,429.8,256z"/>
	</g>
</g>
</svg>
