<?xml version="1.0" encoding="utf-8"?>
<!-- Generator: Adobe Illustrator 22.0.1, SVG Export Plug-In . SVG Version: 6.00 Build 0)  -->
<svg version="1.1" xmlns="http://www.w3.org/2000/svg" xmlns:xlink="http://www.w3.org/1999/xlink" x="0px" y="0px"
	 viewBox="0 0 512 512" style="enable-background:new 0 0 512 512;" xml:space="preserve">
<style type="text/css">
	.st0{display:none;opacity:0.5;}
	.st1{display:inline;}
	.st2{fill:none;}
</style>
<g id="图层_1" class="st0">
</g>
<g id="图层_2">
	<g>
		<path d="M508.1,407.5c0,24.2-19.8,43.9-43.9,43.9H59.9c-24.2,0-43.9-19.8-43.9-43.9V108.6c0-24.2,19.8-43.9,43.9-43.9h404.3
			c24.2,0,43.9,19.8,43.9,43.9V407.5z M472.9,179c0-4.7-4.1-8.8-8.8-8.8H59.9c-4.7,0-8.8,4.1-8.8,8.8v228.5c0,4.7,4.1,8.8,8.8,8.8
			h404.3c4.7,0,8.8-4.1,8.8-8.8V179z M121.4,231.7c0,4.7-4.1,8.8-8.8,8.8H95c-4.7,0-8.8-4.1-8.8-8.8v-17.6c0-4.7,4.1-8.8,8.8-8.8
			h17.6c4.7,0,8.8,4.1,8.8,8.8V231.7z M121.4,302c0,4.7-4.1,8.8-8.8,8.8H95c-4.7,0-8.8-4.1-8.8-8.8v-17.6c0-4.7,4.1-8.8,8.8-8.8
			h17.6c4.7,0,8.8,4.1,8.8,8.8V302z M121.4,372.3c0,4.7-4.1,8.8-8.8,8.8H95c-4.7,0-8.8-4.1-8.8-8.8v-17.6c0-4.7,4.1-8.8,8.8-8.8
			h17.6c4.7,0,8.8,4.1,8.8,8.8V372.3z M437.8,231.7c0,4.7-4.1,8.8-8.8,8.8H165.3c-4.7,0-8.8-4.1-8.8-8.8v-17.6
			c0-4.7,4.1-8.8,8.8-8.8H429c4.7,0,8.8,4.1,8.8,8.8V231.7z M437.8,302c0,4.7-4.1,8.8-8.8,8.8H165.3c-4.7,0-8.8-4.1-8.8-8.8v-17.6
			c0-4.7,4.1-8.8,8.8-8.8H429c4.7,0,8.8,4.1,8.8,8.8V302z M437.8,372.3c0,4.7-4.1,8.8-8.8,8.8H165.3c-4.7,0-8.8-4.1-8.8-8.8v-17.6
			c0-4.7,4.1-8.8,8.8-8.8H429c4.7,0,8.8,4.1,8.8,8.8V372.3z"/>
	</g>
</g>
</svg>
