<?xml version="1.0" encoding="utf-8"?>
<!-- Generator: Adobe Illustrator 22.0.1, SVG Export Plug-In . SVG Version: 6.00 Build 0)  -->
<svg version="1.1" xmlns="http://www.w3.org/2000/svg" xmlns:xlink="http://www.w3.org/1999/xlink" x="0px" y="0px"
	 viewBox="0 0 512 512" style="enable-background:new 0 0 512 512;" xml:space="preserve">
<style type="text/css">
	.st0{display:none;opacity:0.5;}
	.st1{display:inline;}
	.st2{fill:none;}
</style>
<g id="图层_1" class="st0">
</g>
<g id="图层_2">
	<path d="M181.1,46.5h-80.3c-32.4,0-59.5,26.9-59.5,59.3V186c0,32.4,27.1,58.2,59.5,58.2H239V105.8C239,73.4,213.5,46.5,181.1,46.5
		L181.1,46.5z"/>
	<path d="M406.3,46.5H326c-32.4,0-59.4,26.9-59.4,59.3v138.4h139.7c32.4,0,58-25.8,58-58.2v-80.3C464.2,73.4,438.6,46.5,406.3,46.5
		L406.3,46.5z"/>
	<path d="M41.3,330.9v80.3c0,32.4,27.1,58.2,59.5,58.2h80.3c32.4,0,57.9-25.8,57.9-58.2V271.7H100.8
		C68.4,271.7,41.3,298.5,41.3,330.9L41.3,330.9z"/>
	<path d="M406.3,271.7H266.5v139.5c0,32.4,27.1,58.2,59.4,58.2h80.3c32.4,0,58-25.8,58-58.2v-80.3
		C464.2,298.5,438.6,271.7,406.3,271.7L406.3,271.7z M434.7,411.2"/>
</g>
</svg>
