<?xml version="1.0" encoding="utf-8"?>
<!-- Generator: Adobe Illustrator 22.0.1, SVG Export Plug-In . SVG Version: 6.00 Build 0)  -->
<svg version="1.1" xmlns="http://www.w3.org/2000/svg" xmlns:xlink="http://www.w3.org/1999/xlink" x="0px" y="0px"
	 viewBox="0 0 512 512" style="enable-background:new 0 0 512 512;" xml:space="preserve">
<style type="text/css">
	.st0{display:none;opacity:0.5;}
	.st1{display:inline;}
	.st2{fill:none;}
</style>
<g id="图层_1" class="st0">
</g>
<g id="图层_2">
	<path d="M484,113.2c0,4-4.2,7.5-8.9,7.5H38.9c-4.7,0-8.9-3.5-8.9-7.5v-45c0-4,4.2-7.5,8.9-7.5h436.1c4.7,0,8.9,3.5,8.9,7.5V113.2z"
		/>
	<path d="M484,444.6c0,4-4.2,7.5-8.9,7.5H38.9c-4.7,0-8.9-3.5-8.9-7.5v-45c0-4,4.2-7.5,8.9-7.5h436.1c4.7,0,8.9,3.5,8.9,7.5V444.6z"
		/>
	<path d="M137.1,336.8c0,4.7-4.2,8.9-8.9,8.9c-2.2,0-4.7-0.8-6.4-2.5l-80.4-80.4c-1.7-1.7-2.5-4.2-2.5-6.4s0.8-4.7,2.5-6.4
		l80.4-80.4c1.7-1.7,4.2-2.5,6.4-2.5c4.7,0,8.9,4.2,8.9,8.9V336.8z"/>
	<path d="M484,223.7c0,4-4.2,7.5-8.9,7.5H193.5c-4.7,0-8.9-3.5-8.9-7.5v-45c0-4,4.2-7.5,8.9-7.5h281.6c4.7,0,8.9,3.5,8.9,7.5V223.7z
		"/>
	<path d="M484,334.2c0,4-4.2,7.5-8.9,7.5H193.5c-4.7,0-8.9-3.5-8.9-7.5v-45c0-4,4.2-7.5,8.9-7.5h281.6c4.7,0,8.9,3.5,8.9,7.5V334.2z
		"/>
</g>
</svg>
