<?xml version="1.0" encoding="utf-8"?>
<!-- Generator: Adobe Illustrator 22.0.1, SVG Export Plug-In . SVG Version: 6.00 Build 0)  -->
<svg version="1.1" xmlns="http://www.w3.org/2000/svg" xmlns:xlink="http://www.w3.org/1999/xlink" x="0px" y="0px"
	 viewBox="0 0 512 512" style="enable-background:new 0 0 512 512;" xml:space="preserve">
<style type="text/css">
	.st0{stroke:#FFFFFF;stroke-width:5;stroke-miterlimit:10;}
	.st1{fill:none;stroke:#FFFFFF;stroke-miterlimit:10;}
	.st2{fill:none;}
</style>
<g id="图层_1">
</g>
<g id="图层_3">
</g>
<g id="图层_2">
	<g>
		<path d="M427.9,447.1c-25.9,39.5-51.9,59.1-77.5,59.1c-10.3,0-24.1-3.3-42.2-9.6c-17.8-6.6-33.2-9.6-45.5-9.6
			c-12.1,0-26.5,3.3-42.8,10c-16.6,6.9-29.9,10.3-39.8,10.3c-31.1,0-60.9-26.2-90.8-78.1C60,377.1,45,326.8,45,277.3
			c0-46.1,11.5-83.5,34.1-112.8c22.6-28.9,51-43.4,85.6-43.4c14.8,0,32.3,3,53.4,9c20.8,6,34.7,9,41.6,9c8.7,0,23.2-3.3,43.1-10.3
			c19.9-6.6,37.4-10.3,52.2-10.3c24.1,0,45.5,6.6,64.2,19.6c10.6,7.2,21.1,17.5,31.4,30.2c-15.7,13.3-27.1,25-34.4,35.6
			c-13,18.7-19.6,39.5-19.6,62.4c0,24.7,6.9,47.3,20.8,67.2c13.9,19.9,29.9,32.6,47.6,38C457.4,395.5,445.4,420.9,427.9,447.1z
			 M342.9,59c-6,15.1-15.4,28.9-28,41.6c-10.9,10.9-21.7,18.1-32.6,21.7c-6.9,2.1-17.2,3.9-31.4,5.1c0.6-29.9,8.4-55.8,23.5-77.5
			c15.1-21.7,40.4-36.5,75.4-44.6c0.6,2.7,1.2,4.8,1.5,6.6c0,2.1,0.3,3.9,0.3,6C351.6,30.4,348.6,44.3,342.9,59z"/>
	</g>
</g>
</svg>
