<?xml version="1.0" encoding="utf-8"?>
<!-- Generator: Adobe Illustrator 22.0.1, SVG Export Plug-In . SVG Version: 6.00 Build 0)  -->
<svg version="1.1" xmlns="http://www.w3.org/2000/svg" xmlns:xlink="http://www.w3.org/1999/xlink" x="0px" y="0px"
	 viewBox="0 0 512 512" style="enable-background:new 0 0 512 512;" xml:space="preserve">
<style type="text/css">
	.st0{display:none;opacity:0.5;}
	.st1{display:inline;}
	.st2{fill:none;}
</style>
<g id="图层_1" class="st0">
</g>
<g id="图层_2">
	<path id="XMLID_272_" d="M246,420.2l-112.8,59.3c-15.8,8.3-34.2-5.1-31.2-22.7l21.6-125.6c1.2-7-1.1-14.1-6.2-19l-91.3-89
		c-12.8-12.4-5.7-34.1,11.9-36.7l126.2-18.3c7-1,13.1-5.4,16.2-11.8L236.7,42c7.9-16,30.7-16,38.6,0l56.4,114.3
		c3.1,6.4,9.2,10.8,16.2,11.8l126.2,18.3c17.6,2.6,24.7,24.3,11.9,36.7l-91.3,89c-5.1,4.9-7.4,12.1-6.2,19l21.6,125.6
		c3,17.6-15.4,31-31.2,22.7L266,420.2C259.7,416.9,252.3,416.9,246,420.2z"/>
</g>
</svg>
