<?xml version="1.0" encoding="utf-8"?>
<!-- Generator: Adobe Illustrator 22.0.1, SVG Export Plug-In . SVG Version: 6.00 Build 0)  -->
<svg version="1.1" xmlns="http://www.w3.org/2000/svg" xmlns:xlink="http://www.w3.org/1999/xlink" x="0px" y="0px"
	 viewBox="0 0 512 512" style="enable-background:new 0 0 512 512;" xml:space="preserve">
<style type="text/css">
	.st0{display:none;opacity:0.5;}
	.st1{display:inline;}
	.st2{fill:none;}
</style>
<g id="图层_1" class="st0">
</g>
<g id="图层_2">
	<g>
		<path d="M138.5,383.9c-1.5,1.2-0.9,3.8,1.2,5.6c2.1,2.1,4.7,2.4,5.9,0.9c1.2-1.2,0.6-3.8-1.2-5.6
			C142.3,382.7,139.7,382.4,138.5,383.9z"/>
		<path d="M128.2,370.6c-1.5,0.9-1.5,3.2,0,5.3c1.5,2.1,3.8,2.9,5,2.1c1.5-1.2,1.5-3.5,0-5.6C132,370.3,129.7,369.5,128.2,370.6z"/>
		<path d="M119.1,359.2c-1.2,0.9-0.9,2.9,0.6,4.7c1.5,1.5,3.5,2.1,4.7,0.9c1.2-0.9,0.9-2.9-0.6-4.7
			C122.3,358.6,120.3,358,119.1,359.2z"/>
		<path d="M109.4,351.8c-0.6,1.2,0.3,2.6,2.1,3.5c1.5,0.9,3.2,0.6,3.8-0.6c0.6-1.2-0.3-2.6-2.1-3.5
			C111.4,350.6,110,350.9,109.4,351.8z"/>
		<path d="M175.8,395.9c-2.6,0-4.7,1.5-4.7,3.2c0,2.1,2.1,3.5,5,3.2c2.6,0,4.7-1.5,4.7-3.2C180.8,397.1,178.5,395.6,175.8,395.9z"/>
		<path d="M192.6,393.6c-2.6,0.6-4.4,2.4-4.1,4.4c0.3,1.8,2.6,2.9,5.3,2.4c2.6-0.6,4.4-2.4,4.1-4.1
			C197.6,394.5,195.2,393.3,192.6,393.6z"/>
		<path d="M152.9,395c-0.6,1.8,1.2,3.8,3.8,4.4c2.4,0.9,5,0,5.6-1.8c0.6-1.8-1.2-3.8-3.8-4.7C156.1,392.4,153.5,393.3,152.9,395z"/>
		<path d="M255.5,30.5c-124.7,0-225.8,101.1-225.8,225.8c0,99.7,64.7,184.3,154.4,214.3c11.5,2.1,15.6-5,15.6-10.9
			c0-5.6-0.3-23.2-0.3-42c0,0-62.9,13.5-76.1-26.8c0,0-10.3-26.2-25-32.9c0,0-20.6-14.1,1.5-13.8c0,0,22.3,1.8,34.7,23.2
			c19.7,34.7,52.6,24.7,65.6,18.8c2.1-14.4,7.9-24.4,14.4-30.3c-50.3-5.6-102.9-25-102.9-111.4c0-24.7,8.8-44.7,23.2-60.6
			c-2.4-5.9-10-28.8,2.4-60c18.8-5.9,62,23.2,62,23.2c17.9-5,37.3-7.6,56.4-7.6s38.5,2.6,56.4,7.6c0,0,43.2-29.1,62-23.2
			c12.3,31.2,4.7,54.1,2.4,60c14.4,15.9,23.2,35.9,23.2,60.6c0,86.7-52.9,105.8-103.2,111.4c8.2,7.1,15.3,20.6,15.3,41.7
			c0,30.3-0.3,54.7-0.3,62c0,5.9,4.1,12.9,15.6,10.9c89.7-30,154.4-114.7,154.4-214.3C481.3,131.6,380.2,30.5,255.5,30.5z"/>
	</g>
</g>
</svg>
