<?xml version="1.0" encoding="utf-8"?>
<!-- Generator: Adobe Illustrator 22.0.1, SVG Export Plug-In . SVG Version: 6.00 Build 0)  -->
<svg version="1.1" xmlns="http://www.w3.org/2000/svg" xmlns:xlink="http://www.w3.org/1999/xlink" x="0px" y="0px"
	 viewBox="0 0 512 512" style="enable-background:new 0 0 512 512;" xml:space="preserve">
<style type="text/css">
	.st0{display:none;opacity:0.5;}
	.st1{display:inline;}
	.st2{fill:none;}
</style>
<g id="图层_1" class="st0">
</g>
<g id="图层_2">
	<g>
		<path d="M481,154.1c0,8.8-7.3,16.1-16.1,16.1H46.1c-8.8,0-16.1-7.3-16.1-16.1V89.7c0-8.8,7.3-16.1,16.1-16.1h418.8
			c8.8,0,16.1,7.3,16.1,16.1V154.1z M481,283c0,8.8-7.3,16.1-16.1,16.1H46.1c-8.8,0-16.1-7.3-16.1-16.1v-64.4
			c0-8.8,7.3-16.1,16.1-16.1h418.8c8.8,0,16.1,7.3,16.1,16.1V283z M481,411.8c0,8.8-7.3,16.1-16.1,16.1H46.1
			c-8.8,0-16.1-7.3-16.1-16.1v-64.4c0-8.8,7.3-16.1,16.1-16.1h418.8c8.8,0,16.1,7.3,16.1,16.1V411.8z M448.8,266.9v-32.2H191.1v32.2
			H448.8z M448.8,395.7v-32.2H287.7v32.2H448.8z M448.8,138v-32.2h-96.6V138H448.8z"/>
	</g>
</g>
</svg>
