<?xml version="1.0" encoding="utf-8"?>
<!-- Generator: Adobe Illustrator 22.0.1, SVG Export Plug-In . SVG Version: 6.00 Build 0)  -->
<svg version="1.1" xmlns="http://www.w3.org/2000/svg" xmlns:xlink="http://www.w3.org/1999/xlink" x="0px" y="0px"
	 viewBox="0 0 512 512" style="enable-background:new 0 0 512 512;" xml:space="preserve">
<style type="text/css">
	.st0{display:none;opacity:0.5;}
	.st1{display:inline;}
	.st2{fill:none;}
</style>
<g id="图层_1" class="st0">
</g>
<g id="图层_2">
	<path d="M344.8,116c18.6,0,36.1,7.2,49.2,20.4c13.1,13.1,20.4,30.6,20.4,49.2s-7.2,36.1-20.4,49.2l-138,138l-138-138l-0.1-0.1
		c-13.1-13.1-20.3-30.6-20.3-49.1c0-18.6,7.2-36.1,20.4-49.2c13.1-13.1,30.6-20.4,49.2-20.4c18.6,0,36.1,7.2,49.2,20.4L256,176
		l39.6-39.6C308.7,123.2,326.2,116,344.8,116 M344.8,60c-32.1,0-64.3,12.3-88.8,36.8l0,0v0C231.5,72.3,199.3,60,167.2,60
		s-64.3,12.3-88.8,36.8v0c-49,49-49,128.6,0,177.6v0c0,0,0,0,0,0L256,452l177.6-177.6v0c49-49,49-128.6,0-177.6v0
		C409.1,72.3,376.9,60,344.8,60L344.8,60z"/>
</g>
</svg>
