<?xml version="1.0" encoding="utf-8"?>
<!-- Generator: Adobe Illustrator 22.0.1, SVG Export Plug-In . SVG Version: 6.00 Build 0)  -->
<svg version="1.1" xmlns="http://www.w3.org/2000/svg" xmlns:xlink="http://www.w3.org/1999/xlink" x="0px" y="0px"
	 viewBox="0 0 512 512" style="enable-background:new 0 0 512 512;" xml:space="preserve">
<style type="text/css">
	.st0{display:none;opacity:0.5;}
	.st1{display:inline;}
	.st2{fill:none;}
</style>
<g id="图层_1" class="st0">
</g>
<g id="图层_2">
	<g>
		<path d="M482.1,354.2c0,20.6-16.9,37.5-37.5,37.5H317c0,19.9,15,36.8,15,45s-6.8,15-15,15H197c-8.2,0-15-6.8-15-15
			c0-8.7,15-24.6,15-45H69.4c-20.6,0-37.5-16.9-37.5-37.5V99.1c0-20.6,16.9-37.5,37.5-37.5h375.1c20.6,0,37.5,16.9,37.5,37.5V354.2z
			 M452.1,99.1c0-4-3.5-7.5-7.5-7.5H69.4c-4,0-7.5,3.5-7.5,7.5v195.1c0,4,3.5,7.5,7.5,7.5h375.1c4,0,7.5-3.5,7.5-7.5V99.1z"/>
	</g>
</g>
</svg>
