<?xml version="1.0" encoding="utf-8"?>
<!-- Generator: Adobe Illustrator 22.0.1, SVG Export Plug-In . SVG Version: 6.00 Build 0)  -->
<svg version="1.1" xmlns="http://www.w3.org/2000/svg" xmlns:xlink="http://www.w3.org/1999/xlink" x="0px" y="0px"
	 viewBox="0 0 512 512" style="enable-background:new 0 0 512 512;" xml:space="preserve">
<style type="text/css">
	.st0{display:none;opacity:0.5;}
	.st1{display:inline;}
	.st2{fill:none;}
</style>
<g id="图层_1" class="st0">
</g>
<g id="图层_2">
	<g>
		<path d="M431.9,124.9l-78.6-78.6c-9.3-9.3-28-17.1-41.3-17.1H86.1c-13.4,0-24.2,10.8-24.2,24.2v403.2c0,13.4,10.8,24.2,24.2,24.2
			h338.7c13.4,0,24.2-10.8,24.2-24.2V166.2C449.1,152.9,441.3,134.2,431.9,124.9z M320,63.4c4.3,1.5,8.6,3.8,10.3,5.5l78.9,78.9
			c1.8,1.8,4,6,5.5,10.3H320V63.4z M416.8,448.5H94.2V61.4h193.6v104.8c0,13.4,10.8,24.2,24.2,24.2h104.8V448.5z"/>
		<path d="M174.9,287.2c26.7,0,48.4-21.7,48.4-48.4s-21.7-48.4-48.4-48.4c-26.7,0-48.4,21.7-48.4,48.4S148.1,287.2,174.9,287.2z"/>
		<polygon points="207.1,351.7 174.9,319.4 126.5,367.8 126.5,416.2 384.5,416.2 384.5,335.6 303.9,254.9 		"/>
	</g>
</g>
</svg>
