<?xml version="1.0" encoding="utf-8"?>
<!-- Generator: Adobe Illustrator 22.0.1, SVG Export Plug-In . SVG Version: 6.00 Build 0)  -->
<svg version="1.1" xmlns="http://www.w3.org/2000/svg" xmlns:xlink="http://www.w3.org/1999/xlink" x="0px" y="0px"
	 viewBox="0 0 512 512" style="enable-background:new 0 0 512 512;" xml:space="preserve">
<style type="text/css">
	.st0{display:none;opacity:0.5;}
	.st1{display:inline;}
	.st2{fill:none;}
</style>
<g id="图层_1" class="st0">
</g>
<g id="图层_2">
	<g>
		<path d="M256,409.3c0,10.5-8.7,19.2-19.2,19.2c-5.1,0-9.9-2.1-13.5-5.7l-43.1-43.1L80.9,479c-1.8,1.8-4.5,3-6.9,3
			c-2.4,0-5.1-1.2-6.9-3L33,444.9c-1.8-1.8-3-4.5-3-6.9c0-2.4,1.2-5.1,3-6.9l99.4-99.4l-43.1-43.1c-3.6-3.6-5.7-8.4-5.7-13.5
			c0-10.5,8.7-19.2,19.2-19.2h134.1c10.5,0,19.2,8.7,19.2,19.2V409.3z M479,80.9l-99.4,99.4l43.1,43.1c3.6,3.6,5.7,8.4,5.7,13.5
			c0,10.5-8.7,19.2-19.2,19.2H275.2c-10.5,0-19.2-8.7-19.2-19.2V102.7c0-10.5,8.7-19.2,19.2-19.2c5.1,0,9.9,2.1,13.5,5.7l43.1,43.1
			L431.1,33c1.8-1.8,4.5-3,6.9-3c2.4,0,5.1,1.2,6.9,3L479,67.1c1.8,1.8,3,4.5,3,6.9C482,76.4,480.8,79.1,479,80.9z"/>
	</g>
</g>
</svg>
