<?xml version="1.0" encoding="utf-8"?>
<!-- Generator: Adobe Illustrator 22.0.1, SVG Export Plug-In . SVG Version: 6.00 Build 0)  -->
<svg version="1.1" xmlns="http://www.w3.org/2000/svg" xmlns:xlink="http://www.w3.org/1999/xlink" x="0px" y="0px"
	 viewBox="0 0 512 512" style="enable-background:new 0 0 512 512;" xml:space="preserve">
<style type="text/css">
	.st0{display:none;opacity:0.5;}
	.st1{display:inline;}
	.st2{fill:none;}
</style>
<g id="图层_1" class="st0">
</g>
<g id="图层_2">
	<g>
		<circle cx="256" cy="203" r="90"/>
		<ellipse transform="matrix(0.9239 -0.3827 0.3827 0.9239 -34.0299 54.9067)" cx="121" cy="113" rx="60" ry="60"/>
		<ellipse transform="matrix(0.9239 -0.3827 0.3827 0.9239 -13.477 158.2328)" cx="391" cy="113" rx="60" ry="60"/>
		<path d="M339.9,278c-8,0-37,32.6-83.9,32.6S180.1,278,172.1,278C103.4,278,91,359.3,91,412.3c0,38,25.1,60.7,62.6,60.7h204.8
			c37.5,0,62.6-22.7,62.6-60.7C421,359.3,408.6,278,339.9,278z"/>
		<path d="M170,263c-12.2-17.6-19-38.7-19-60c0-5.2,0.5-10.3,1.2-15.5c-10.1,3.5-20.4,5.4-31.2,5.4c-31.6,0-56-19.9-60.9-19.9
			C30.3,173,31,236.7,31,255.7c0,26,22,37.3,45.5,37.3h31.4C123.6,274.2,145.6,263.7,170,263z"/>
		<path d="M451.9,173c-4.9,0-29.3,19.9-60.9,19.9c-10.8,0-21.1-1.9-31.2-5.4c0.7,5.2,1.2,10.3,1.2,15.5c0,21.3-6.8,42.4-19,60
			c24.4,0.7,46.4,11.3,62.1,30h31.4c23.4,0,45.5-11.3,45.5-37.3C481,236.7,481.7,173,451.9,173z"/>
	</g>
</g>
</svg>
