<?xml version="1.0" encoding="utf-8"?>
<!-- Generator: Adobe Illustrator 22.0.1, SVG Export Plug-In . SVG Version: 6.00 Build 0)  -->
<svg version="1.1" xmlns="http://www.w3.org/2000/svg" xmlns:xlink="http://www.w3.org/1999/xlink" x="0px" y="0px"
	 viewBox="0 0 512 512" style="enable-background:new 0 0 512 512;" xml:space="preserve">
<style type="text/css">
	.st0{display:none;opacity:0.5;}
	.st1{display:inline;}
	.st2{fill:none;}
</style>
<g id="图层_1" class="st0">
</g>
<g id="图层_2">
	<g>
		<path d="M215.9,343.7c-14.5,0-28.4-1.4-41.7-3.8c-19.7,14-42,24.2-65.9,30.3c-6.4,1.7-13.3,2.8-20.4,3.8c-0.2,0-0.5,0-0.7,0
			c-3.6,0-6.9-2.8-7.6-6.9c-0.9-4.5,2.1-7.3,4.7-10.4c9.2-10.4,19.7-19.7,27.7-39.4C73.7,295.1,49,260.7,49,222.3
			c0-67.1,74.7-121.4,166.9-121.4s166.9,54.3,166.9,121.4S308.1,343.7,215.9,343.7z M410.8,378c8.1,19.7,18.5,28.9,27.7,39.4
			c2.6,3.1,5.7,5.9,4.7,10.4c-0.9,4.3-4.5,7.3-8.3,6.9c-7.1-0.9-14-2.1-20.4-3.8c-23.9-6.2-46.2-16.4-65.9-30.3
			c-13.3,2.4-27.3,3.8-41.7,3.8c-42.9,0-82.3-11.9-111.9-31.3c6.9,0.5,14,0.9,20.9,0.9c51,0,99.1-14.7,135.8-41.2
			c39.6-28.9,61.4-68,61.4-110.5c0-12.3-1.9-24.4-5.5-36c40.1,22,66.1,57.1,66.1,96.7C473.8,321.6,449.2,355.7,410.8,378z"/>
	</g>
</g>
</svg>
